G75*
%MOIN*%
%OFA0B0*%
%FSLAX25Y25*%
%IPPOS*%
%LPD*%
%AMOC8*
5,1,8,0,0,1.08239X$1,22.5*
%
%ADD10C,0.00600*%
%ADD11C,0.00000*%
%ADD12C,0.07400*%
%ADD13C,0.06000*%
%ADD14C,0.07000*%
%ADD15C,0.01600*%
%ADD16C,0.02978*%
D10*
X0001800Y0006250D02*
X0001800Y0186250D01*
X0141800Y0186250D01*
X0141800Y0006250D01*
X0001800Y0006250D01*
D11*
X0005500Y0016250D02*
X0005502Y0016408D01*
X0005508Y0016567D01*
X0005518Y0016725D01*
X0005532Y0016882D01*
X0005550Y0017040D01*
X0005571Y0017196D01*
X0005597Y0017353D01*
X0005627Y0017508D01*
X0005660Y0017663D01*
X0005698Y0017817D01*
X0005739Y0017970D01*
X0005784Y0018121D01*
X0005833Y0018272D01*
X0005886Y0018421D01*
X0005942Y0018569D01*
X0006003Y0018716D01*
X0006066Y0018861D01*
X0006134Y0019004D01*
X0006205Y0019145D01*
X0006279Y0019285D01*
X0006357Y0019423D01*
X0006439Y0019559D01*
X0006524Y0019692D01*
X0006612Y0019824D01*
X0006703Y0019953D01*
X0006798Y0020080D01*
X0006896Y0020204D01*
X0006997Y0020326D01*
X0007101Y0020446D01*
X0007207Y0020563D01*
X0007317Y0020677D01*
X0007430Y0020788D01*
X0007545Y0020896D01*
X0007664Y0021002D01*
X0007784Y0021104D01*
X0007907Y0021204D01*
X0008033Y0021300D01*
X0008161Y0021393D01*
X0008292Y0021483D01*
X0008424Y0021569D01*
X0008559Y0021652D01*
X0008696Y0021732D01*
X0008835Y0021808D01*
X0008975Y0021881D01*
X0009118Y0021950D01*
X0009262Y0022016D01*
X0009407Y0022078D01*
X0009555Y0022136D01*
X0009703Y0022191D01*
X0009853Y0022242D01*
X0010004Y0022289D01*
X0010157Y0022332D01*
X0010310Y0022371D01*
X0010464Y0022407D01*
X0010619Y0022438D01*
X0010775Y0022466D01*
X0010932Y0022490D01*
X0011089Y0022510D01*
X0011247Y0022526D01*
X0011404Y0022538D01*
X0011563Y0022546D01*
X0011721Y0022550D01*
X0011879Y0022550D01*
X0012037Y0022546D01*
X0012196Y0022538D01*
X0012353Y0022526D01*
X0012511Y0022510D01*
X0012668Y0022490D01*
X0012825Y0022466D01*
X0012981Y0022438D01*
X0013136Y0022407D01*
X0013290Y0022371D01*
X0013443Y0022332D01*
X0013596Y0022289D01*
X0013747Y0022242D01*
X0013897Y0022191D01*
X0014045Y0022136D01*
X0014193Y0022078D01*
X0014338Y0022016D01*
X0014482Y0021950D01*
X0014625Y0021881D01*
X0014765Y0021808D01*
X0014904Y0021732D01*
X0015041Y0021652D01*
X0015176Y0021569D01*
X0015308Y0021483D01*
X0015439Y0021393D01*
X0015567Y0021300D01*
X0015693Y0021204D01*
X0015816Y0021104D01*
X0015936Y0021002D01*
X0016055Y0020896D01*
X0016170Y0020788D01*
X0016283Y0020677D01*
X0016393Y0020563D01*
X0016499Y0020446D01*
X0016603Y0020326D01*
X0016704Y0020204D01*
X0016802Y0020080D01*
X0016897Y0019953D01*
X0016988Y0019824D01*
X0017076Y0019692D01*
X0017161Y0019559D01*
X0017243Y0019423D01*
X0017321Y0019285D01*
X0017395Y0019145D01*
X0017466Y0019004D01*
X0017534Y0018861D01*
X0017597Y0018716D01*
X0017658Y0018569D01*
X0017714Y0018421D01*
X0017767Y0018272D01*
X0017816Y0018121D01*
X0017861Y0017970D01*
X0017902Y0017817D01*
X0017940Y0017663D01*
X0017973Y0017508D01*
X0018003Y0017353D01*
X0018029Y0017196D01*
X0018050Y0017040D01*
X0018068Y0016882D01*
X0018082Y0016725D01*
X0018092Y0016567D01*
X0018098Y0016408D01*
X0018100Y0016250D01*
X0018098Y0016092D01*
X0018092Y0015933D01*
X0018082Y0015775D01*
X0018068Y0015618D01*
X0018050Y0015460D01*
X0018029Y0015304D01*
X0018003Y0015147D01*
X0017973Y0014992D01*
X0017940Y0014837D01*
X0017902Y0014683D01*
X0017861Y0014530D01*
X0017816Y0014379D01*
X0017767Y0014228D01*
X0017714Y0014079D01*
X0017658Y0013931D01*
X0017597Y0013784D01*
X0017534Y0013639D01*
X0017466Y0013496D01*
X0017395Y0013355D01*
X0017321Y0013215D01*
X0017243Y0013077D01*
X0017161Y0012941D01*
X0017076Y0012808D01*
X0016988Y0012676D01*
X0016897Y0012547D01*
X0016802Y0012420D01*
X0016704Y0012296D01*
X0016603Y0012174D01*
X0016499Y0012054D01*
X0016393Y0011937D01*
X0016283Y0011823D01*
X0016170Y0011712D01*
X0016055Y0011604D01*
X0015936Y0011498D01*
X0015816Y0011396D01*
X0015693Y0011296D01*
X0015567Y0011200D01*
X0015439Y0011107D01*
X0015308Y0011017D01*
X0015176Y0010931D01*
X0015041Y0010848D01*
X0014904Y0010768D01*
X0014765Y0010692D01*
X0014625Y0010619D01*
X0014482Y0010550D01*
X0014338Y0010484D01*
X0014193Y0010422D01*
X0014045Y0010364D01*
X0013897Y0010309D01*
X0013747Y0010258D01*
X0013596Y0010211D01*
X0013443Y0010168D01*
X0013290Y0010129D01*
X0013136Y0010093D01*
X0012981Y0010062D01*
X0012825Y0010034D01*
X0012668Y0010010D01*
X0012511Y0009990D01*
X0012353Y0009974D01*
X0012196Y0009962D01*
X0012037Y0009954D01*
X0011879Y0009950D01*
X0011721Y0009950D01*
X0011563Y0009954D01*
X0011404Y0009962D01*
X0011247Y0009974D01*
X0011089Y0009990D01*
X0010932Y0010010D01*
X0010775Y0010034D01*
X0010619Y0010062D01*
X0010464Y0010093D01*
X0010310Y0010129D01*
X0010157Y0010168D01*
X0010004Y0010211D01*
X0009853Y0010258D01*
X0009703Y0010309D01*
X0009555Y0010364D01*
X0009407Y0010422D01*
X0009262Y0010484D01*
X0009118Y0010550D01*
X0008975Y0010619D01*
X0008835Y0010692D01*
X0008696Y0010768D01*
X0008559Y0010848D01*
X0008424Y0010931D01*
X0008292Y0011017D01*
X0008161Y0011107D01*
X0008033Y0011200D01*
X0007907Y0011296D01*
X0007784Y0011396D01*
X0007664Y0011498D01*
X0007545Y0011604D01*
X0007430Y0011712D01*
X0007317Y0011823D01*
X0007207Y0011937D01*
X0007101Y0012054D01*
X0006997Y0012174D01*
X0006896Y0012296D01*
X0006798Y0012420D01*
X0006703Y0012547D01*
X0006612Y0012676D01*
X0006524Y0012808D01*
X0006439Y0012941D01*
X0006357Y0013077D01*
X0006279Y0013215D01*
X0006205Y0013355D01*
X0006134Y0013496D01*
X0006066Y0013639D01*
X0006003Y0013784D01*
X0005942Y0013931D01*
X0005886Y0014079D01*
X0005833Y0014228D01*
X0005784Y0014379D01*
X0005739Y0014530D01*
X0005698Y0014683D01*
X0005660Y0014837D01*
X0005627Y0014992D01*
X0005597Y0015147D01*
X0005571Y0015304D01*
X0005550Y0015460D01*
X0005532Y0015618D01*
X0005518Y0015775D01*
X0005508Y0015933D01*
X0005502Y0016092D01*
X0005500Y0016250D01*
X0005500Y0131250D02*
X0005502Y0131408D01*
X0005508Y0131567D01*
X0005518Y0131725D01*
X0005532Y0131882D01*
X0005550Y0132040D01*
X0005571Y0132196D01*
X0005597Y0132353D01*
X0005627Y0132508D01*
X0005660Y0132663D01*
X0005698Y0132817D01*
X0005739Y0132970D01*
X0005784Y0133121D01*
X0005833Y0133272D01*
X0005886Y0133421D01*
X0005942Y0133569D01*
X0006003Y0133716D01*
X0006066Y0133861D01*
X0006134Y0134004D01*
X0006205Y0134145D01*
X0006279Y0134285D01*
X0006357Y0134423D01*
X0006439Y0134559D01*
X0006524Y0134692D01*
X0006612Y0134824D01*
X0006703Y0134953D01*
X0006798Y0135080D01*
X0006896Y0135204D01*
X0006997Y0135326D01*
X0007101Y0135446D01*
X0007207Y0135563D01*
X0007317Y0135677D01*
X0007430Y0135788D01*
X0007545Y0135896D01*
X0007664Y0136002D01*
X0007784Y0136104D01*
X0007907Y0136204D01*
X0008033Y0136300D01*
X0008161Y0136393D01*
X0008292Y0136483D01*
X0008424Y0136569D01*
X0008559Y0136652D01*
X0008696Y0136732D01*
X0008835Y0136808D01*
X0008975Y0136881D01*
X0009118Y0136950D01*
X0009262Y0137016D01*
X0009407Y0137078D01*
X0009555Y0137136D01*
X0009703Y0137191D01*
X0009853Y0137242D01*
X0010004Y0137289D01*
X0010157Y0137332D01*
X0010310Y0137371D01*
X0010464Y0137407D01*
X0010619Y0137438D01*
X0010775Y0137466D01*
X0010932Y0137490D01*
X0011089Y0137510D01*
X0011247Y0137526D01*
X0011404Y0137538D01*
X0011563Y0137546D01*
X0011721Y0137550D01*
X0011879Y0137550D01*
X0012037Y0137546D01*
X0012196Y0137538D01*
X0012353Y0137526D01*
X0012511Y0137510D01*
X0012668Y0137490D01*
X0012825Y0137466D01*
X0012981Y0137438D01*
X0013136Y0137407D01*
X0013290Y0137371D01*
X0013443Y0137332D01*
X0013596Y0137289D01*
X0013747Y0137242D01*
X0013897Y0137191D01*
X0014045Y0137136D01*
X0014193Y0137078D01*
X0014338Y0137016D01*
X0014482Y0136950D01*
X0014625Y0136881D01*
X0014765Y0136808D01*
X0014904Y0136732D01*
X0015041Y0136652D01*
X0015176Y0136569D01*
X0015308Y0136483D01*
X0015439Y0136393D01*
X0015567Y0136300D01*
X0015693Y0136204D01*
X0015816Y0136104D01*
X0015936Y0136002D01*
X0016055Y0135896D01*
X0016170Y0135788D01*
X0016283Y0135677D01*
X0016393Y0135563D01*
X0016499Y0135446D01*
X0016603Y0135326D01*
X0016704Y0135204D01*
X0016802Y0135080D01*
X0016897Y0134953D01*
X0016988Y0134824D01*
X0017076Y0134692D01*
X0017161Y0134559D01*
X0017243Y0134423D01*
X0017321Y0134285D01*
X0017395Y0134145D01*
X0017466Y0134004D01*
X0017534Y0133861D01*
X0017597Y0133716D01*
X0017658Y0133569D01*
X0017714Y0133421D01*
X0017767Y0133272D01*
X0017816Y0133121D01*
X0017861Y0132970D01*
X0017902Y0132817D01*
X0017940Y0132663D01*
X0017973Y0132508D01*
X0018003Y0132353D01*
X0018029Y0132196D01*
X0018050Y0132040D01*
X0018068Y0131882D01*
X0018082Y0131725D01*
X0018092Y0131567D01*
X0018098Y0131408D01*
X0018100Y0131250D01*
X0018098Y0131092D01*
X0018092Y0130933D01*
X0018082Y0130775D01*
X0018068Y0130618D01*
X0018050Y0130460D01*
X0018029Y0130304D01*
X0018003Y0130147D01*
X0017973Y0129992D01*
X0017940Y0129837D01*
X0017902Y0129683D01*
X0017861Y0129530D01*
X0017816Y0129379D01*
X0017767Y0129228D01*
X0017714Y0129079D01*
X0017658Y0128931D01*
X0017597Y0128784D01*
X0017534Y0128639D01*
X0017466Y0128496D01*
X0017395Y0128355D01*
X0017321Y0128215D01*
X0017243Y0128077D01*
X0017161Y0127941D01*
X0017076Y0127808D01*
X0016988Y0127676D01*
X0016897Y0127547D01*
X0016802Y0127420D01*
X0016704Y0127296D01*
X0016603Y0127174D01*
X0016499Y0127054D01*
X0016393Y0126937D01*
X0016283Y0126823D01*
X0016170Y0126712D01*
X0016055Y0126604D01*
X0015936Y0126498D01*
X0015816Y0126396D01*
X0015693Y0126296D01*
X0015567Y0126200D01*
X0015439Y0126107D01*
X0015308Y0126017D01*
X0015176Y0125931D01*
X0015041Y0125848D01*
X0014904Y0125768D01*
X0014765Y0125692D01*
X0014625Y0125619D01*
X0014482Y0125550D01*
X0014338Y0125484D01*
X0014193Y0125422D01*
X0014045Y0125364D01*
X0013897Y0125309D01*
X0013747Y0125258D01*
X0013596Y0125211D01*
X0013443Y0125168D01*
X0013290Y0125129D01*
X0013136Y0125093D01*
X0012981Y0125062D01*
X0012825Y0125034D01*
X0012668Y0125010D01*
X0012511Y0124990D01*
X0012353Y0124974D01*
X0012196Y0124962D01*
X0012037Y0124954D01*
X0011879Y0124950D01*
X0011721Y0124950D01*
X0011563Y0124954D01*
X0011404Y0124962D01*
X0011247Y0124974D01*
X0011089Y0124990D01*
X0010932Y0125010D01*
X0010775Y0125034D01*
X0010619Y0125062D01*
X0010464Y0125093D01*
X0010310Y0125129D01*
X0010157Y0125168D01*
X0010004Y0125211D01*
X0009853Y0125258D01*
X0009703Y0125309D01*
X0009555Y0125364D01*
X0009407Y0125422D01*
X0009262Y0125484D01*
X0009118Y0125550D01*
X0008975Y0125619D01*
X0008835Y0125692D01*
X0008696Y0125768D01*
X0008559Y0125848D01*
X0008424Y0125931D01*
X0008292Y0126017D01*
X0008161Y0126107D01*
X0008033Y0126200D01*
X0007907Y0126296D01*
X0007784Y0126396D01*
X0007664Y0126498D01*
X0007545Y0126604D01*
X0007430Y0126712D01*
X0007317Y0126823D01*
X0007207Y0126937D01*
X0007101Y0127054D01*
X0006997Y0127174D01*
X0006896Y0127296D01*
X0006798Y0127420D01*
X0006703Y0127547D01*
X0006612Y0127676D01*
X0006524Y0127808D01*
X0006439Y0127941D01*
X0006357Y0128077D01*
X0006279Y0128215D01*
X0006205Y0128355D01*
X0006134Y0128496D01*
X0006066Y0128639D01*
X0006003Y0128784D01*
X0005942Y0128931D01*
X0005886Y0129079D01*
X0005833Y0129228D01*
X0005784Y0129379D01*
X0005739Y0129530D01*
X0005698Y0129683D01*
X0005660Y0129837D01*
X0005627Y0129992D01*
X0005597Y0130147D01*
X0005571Y0130304D01*
X0005550Y0130460D01*
X0005532Y0130618D01*
X0005518Y0130775D01*
X0005508Y0130933D01*
X0005502Y0131092D01*
X0005500Y0131250D01*
X0125500Y0131250D02*
X0125502Y0131408D01*
X0125508Y0131567D01*
X0125518Y0131725D01*
X0125532Y0131882D01*
X0125550Y0132040D01*
X0125571Y0132196D01*
X0125597Y0132353D01*
X0125627Y0132508D01*
X0125660Y0132663D01*
X0125698Y0132817D01*
X0125739Y0132970D01*
X0125784Y0133121D01*
X0125833Y0133272D01*
X0125886Y0133421D01*
X0125942Y0133569D01*
X0126003Y0133716D01*
X0126066Y0133861D01*
X0126134Y0134004D01*
X0126205Y0134145D01*
X0126279Y0134285D01*
X0126357Y0134423D01*
X0126439Y0134559D01*
X0126524Y0134692D01*
X0126612Y0134824D01*
X0126703Y0134953D01*
X0126798Y0135080D01*
X0126896Y0135204D01*
X0126997Y0135326D01*
X0127101Y0135446D01*
X0127207Y0135563D01*
X0127317Y0135677D01*
X0127430Y0135788D01*
X0127545Y0135896D01*
X0127664Y0136002D01*
X0127784Y0136104D01*
X0127907Y0136204D01*
X0128033Y0136300D01*
X0128161Y0136393D01*
X0128292Y0136483D01*
X0128424Y0136569D01*
X0128559Y0136652D01*
X0128696Y0136732D01*
X0128835Y0136808D01*
X0128975Y0136881D01*
X0129118Y0136950D01*
X0129262Y0137016D01*
X0129407Y0137078D01*
X0129555Y0137136D01*
X0129703Y0137191D01*
X0129853Y0137242D01*
X0130004Y0137289D01*
X0130157Y0137332D01*
X0130310Y0137371D01*
X0130464Y0137407D01*
X0130619Y0137438D01*
X0130775Y0137466D01*
X0130932Y0137490D01*
X0131089Y0137510D01*
X0131247Y0137526D01*
X0131404Y0137538D01*
X0131563Y0137546D01*
X0131721Y0137550D01*
X0131879Y0137550D01*
X0132037Y0137546D01*
X0132196Y0137538D01*
X0132353Y0137526D01*
X0132511Y0137510D01*
X0132668Y0137490D01*
X0132825Y0137466D01*
X0132981Y0137438D01*
X0133136Y0137407D01*
X0133290Y0137371D01*
X0133443Y0137332D01*
X0133596Y0137289D01*
X0133747Y0137242D01*
X0133897Y0137191D01*
X0134045Y0137136D01*
X0134193Y0137078D01*
X0134338Y0137016D01*
X0134482Y0136950D01*
X0134625Y0136881D01*
X0134765Y0136808D01*
X0134904Y0136732D01*
X0135041Y0136652D01*
X0135176Y0136569D01*
X0135308Y0136483D01*
X0135439Y0136393D01*
X0135567Y0136300D01*
X0135693Y0136204D01*
X0135816Y0136104D01*
X0135936Y0136002D01*
X0136055Y0135896D01*
X0136170Y0135788D01*
X0136283Y0135677D01*
X0136393Y0135563D01*
X0136499Y0135446D01*
X0136603Y0135326D01*
X0136704Y0135204D01*
X0136802Y0135080D01*
X0136897Y0134953D01*
X0136988Y0134824D01*
X0137076Y0134692D01*
X0137161Y0134559D01*
X0137243Y0134423D01*
X0137321Y0134285D01*
X0137395Y0134145D01*
X0137466Y0134004D01*
X0137534Y0133861D01*
X0137597Y0133716D01*
X0137658Y0133569D01*
X0137714Y0133421D01*
X0137767Y0133272D01*
X0137816Y0133121D01*
X0137861Y0132970D01*
X0137902Y0132817D01*
X0137940Y0132663D01*
X0137973Y0132508D01*
X0138003Y0132353D01*
X0138029Y0132196D01*
X0138050Y0132040D01*
X0138068Y0131882D01*
X0138082Y0131725D01*
X0138092Y0131567D01*
X0138098Y0131408D01*
X0138100Y0131250D01*
X0138098Y0131092D01*
X0138092Y0130933D01*
X0138082Y0130775D01*
X0138068Y0130618D01*
X0138050Y0130460D01*
X0138029Y0130304D01*
X0138003Y0130147D01*
X0137973Y0129992D01*
X0137940Y0129837D01*
X0137902Y0129683D01*
X0137861Y0129530D01*
X0137816Y0129379D01*
X0137767Y0129228D01*
X0137714Y0129079D01*
X0137658Y0128931D01*
X0137597Y0128784D01*
X0137534Y0128639D01*
X0137466Y0128496D01*
X0137395Y0128355D01*
X0137321Y0128215D01*
X0137243Y0128077D01*
X0137161Y0127941D01*
X0137076Y0127808D01*
X0136988Y0127676D01*
X0136897Y0127547D01*
X0136802Y0127420D01*
X0136704Y0127296D01*
X0136603Y0127174D01*
X0136499Y0127054D01*
X0136393Y0126937D01*
X0136283Y0126823D01*
X0136170Y0126712D01*
X0136055Y0126604D01*
X0135936Y0126498D01*
X0135816Y0126396D01*
X0135693Y0126296D01*
X0135567Y0126200D01*
X0135439Y0126107D01*
X0135308Y0126017D01*
X0135176Y0125931D01*
X0135041Y0125848D01*
X0134904Y0125768D01*
X0134765Y0125692D01*
X0134625Y0125619D01*
X0134482Y0125550D01*
X0134338Y0125484D01*
X0134193Y0125422D01*
X0134045Y0125364D01*
X0133897Y0125309D01*
X0133747Y0125258D01*
X0133596Y0125211D01*
X0133443Y0125168D01*
X0133290Y0125129D01*
X0133136Y0125093D01*
X0132981Y0125062D01*
X0132825Y0125034D01*
X0132668Y0125010D01*
X0132511Y0124990D01*
X0132353Y0124974D01*
X0132196Y0124962D01*
X0132037Y0124954D01*
X0131879Y0124950D01*
X0131721Y0124950D01*
X0131563Y0124954D01*
X0131404Y0124962D01*
X0131247Y0124974D01*
X0131089Y0124990D01*
X0130932Y0125010D01*
X0130775Y0125034D01*
X0130619Y0125062D01*
X0130464Y0125093D01*
X0130310Y0125129D01*
X0130157Y0125168D01*
X0130004Y0125211D01*
X0129853Y0125258D01*
X0129703Y0125309D01*
X0129555Y0125364D01*
X0129407Y0125422D01*
X0129262Y0125484D01*
X0129118Y0125550D01*
X0128975Y0125619D01*
X0128835Y0125692D01*
X0128696Y0125768D01*
X0128559Y0125848D01*
X0128424Y0125931D01*
X0128292Y0126017D01*
X0128161Y0126107D01*
X0128033Y0126200D01*
X0127907Y0126296D01*
X0127784Y0126396D01*
X0127664Y0126498D01*
X0127545Y0126604D01*
X0127430Y0126712D01*
X0127317Y0126823D01*
X0127207Y0126937D01*
X0127101Y0127054D01*
X0126997Y0127174D01*
X0126896Y0127296D01*
X0126798Y0127420D01*
X0126703Y0127547D01*
X0126612Y0127676D01*
X0126524Y0127808D01*
X0126439Y0127941D01*
X0126357Y0128077D01*
X0126279Y0128215D01*
X0126205Y0128355D01*
X0126134Y0128496D01*
X0126066Y0128639D01*
X0126003Y0128784D01*
X0125942Y0128931D01*
X0125886Y0129079D01*
X0125833Y0129228D01*
X0125784Y0129379D01*
X0125739Y0129530D01*
X0125698Y0129683D01*
X0125660Y0129837D01*
X0125627Y0129992D01*
X0125597Y0130147D01*
X0125571Y0130304D01*
X0125550Y0130460D01*
X0125532Y0130618D01*
X0125518Y0130775D01*
X0125508Y0130933D01*
X0125502Y0131092D01*
X0125500Y0131250D01*
X0125500Y0016250D02*
X0125502Y0016408D01*
X0125508Y0016567D01*
X0125518Y0016725D01*
X0125532Y0016882D01*
X0125550Y0017040D01*
X0125571Y0017196D01*
X0125597Y0017353D01*
X0125627Y0017508D01*
X0125660Y0017663D01*
X0125698Y0017817D01*
X0125739Y0017970D01*
X0125784Y0018121D01*
X0125833Y0018272D01*
X0125886Y0018421D01*
X0125942Y0018569D01*
X0126003Y0018716D01*
X0126066Y0018861D01*
X0126134Y0019004D01*
X0126205Y0019145D01*
X0126279Y0019285D01*
X0126357Y0019423D01*
X0126439Y0019559D01*
X0126524Y0019692D01*
X0126612Y0019824D01*
X0126703Y0019953D01*
X0126798Y0020080D01*
X0126896Y0020204D01*
X0126997Y0020326D01*
X0127101Y0020446D01*
X0127207Y0020563D01*
X0127317Y0020677D01*
X0127430Y0020788D01*
X0127545Y0020896D01*
X0127664Y0021002D01*
X0127784Y0021104D01*
X0127907Y0021204D01*
X0128033Y0021300D01*
X0128161Y0021393D01*
X0128292Y0021483D01*
X0128424Y0021569D01*
X0128559Y0021652D01*
X0128696Y0021732D01*
X0128835Y0021808D01*
X0128975Y0021881D01*
X0129118Y0021950D01*
X0129262Y0022016D01*
X0129407Y0022078D01*
X0129555Y0022136D01*
X0129703Y0022191D01*
X0129853Y0022242D01*
X0130004Y0022289D01*
X0130157Y0022332D01*
X0130310Y0022371D01*
X0130464Y0022407D01*
X0130619Y0022438D01*
X0130775Y0022466D01*
X0130932Y0022490D01*
X0131089Y0022510D01*
X0131247Y0022526D01*
X0131404Y0022538D01*
X0131563Y0022546D01*
X0131721Y0022550D01*
X0131879Y0022550D01*
X0132037Y0022546D01*
X0132196Y0022538D01*
X0132353Y0022526D01*
X0132511Y0022510D01*
X0132668Y0022490D01*
X0132825Y0022466D01*
X0132981Y0022438D01*
X0133136Y0022407D01*
X0133290Y0022371D01*
X0133443Y0022332D01*
X0133596Y0022289D01*
X0133747Y0022242D01*
X0133897Y0022191D01*
X0134045Y0022136D01*
X0134193Y0022078D01*
X0134338Y0022016D01*
X0134482Y0021950D01*
X0134625Y0021881D01*
X0134765Y0021808D01*
X0134904Y0021732D01*
X0135041Y0021652D01*
X0135176Y0021569D01*
X0135308Y0021483D01*
X0135439Y0021393D01*
X0135567Y0021300D01*
X0135693Y0021204D01*
X0135816Y0021104D01*
X0135936Y0021002D01*
X0136055Y0020896D01*
X0136170Y0020788D01*
X0136283Y0020677D01*
X0136393Y0020563D01*
X0136499Y0020446D01*
X0136603Y0020326D01*
X0136704Y0020204D01*
X0136802Y0020080D01*
X0136897Y0019953D01*
X0136988Y0019824D01*
X0137076Y0019692D01*
X0137161Y0019559D01*
X0137243Y0019423D01*
X0137321Y0019285D01*
X0137395Y0019145D01*
X0137466Y0019004D01*
X0137534Y0018861D01*
X0137597Y0018716D01*
X0137658Y0018569D01*
X0137714Y0018421D01*
X0137767Y0018272D01*
X0137816Y0018121D01*
X0137861Y0017970D01*
X0137902Y0017817D01*
X0137940Y0017663D01*
X0137973Y0017508D01*
X0138003Y0017353D01*
X0138029Y0017196D01*
X0138050Y0017040D01*
X0138068Y0016882D01*
X0138082Y0016725D01*
X0138092Y0016567D01*
X0138098Y0016408D01*
X0138100Y0016250D01*
X0138098Y0016092D01*
X0138092Y0015933D01*
X0138082Y0015775D01*
X0138068Y0015618D01*
X0138050Y0015460D01*
X0138029Y0015304D01*
X0138003Y0015147D01*
X0137973Y0014992D01*
X0137940Y0014837D01*
X0137902Y0014683D01*
X0137861Y0014530D01*
X0137816Y0014379D01*
X0137767Y0014228D01*
X0137714Y0014079D01*
X0137658Y0013931D01*
X0137597Y0013784D01*
X0137534Y0013639D01*
X0137466Y0013496D01*
X0137395Y0013355D01*
X0137321Y0013215D01*
X0137243Y0013077D01*
X0137161Y0012941D01*
X0137076Y0012808D01*
X0136988Y0012676D01*
X0136897Y0012547D01*
X0136802Y0012420D01*
X0136704Y0012296D01*
X0136603Y0012174D01*
X0136499Y0012054D01*
X0136393Y0011937D01*
X0136283Y0011823D01*
X0136170Y0011712D01*
X0136055Y0011604D01*
X0135936Y0011498D01*
X0135816Y0011396D01*
X0135693Y0011296D01*
X0135567Y0011200D01*
X0135439Y0011107D01*
X0135308Y0011017D01*
X0135176Y0010931D01*
X0135041Y0010848D01*
X0134904Y0010768D01*
X0134765Y0010692D01*
X0134625Y0010619D01*
X0134482Y0010550D01*
X0134338Y0010484D01*
X0134193Y0010422D01*
X0134045Y0010364D01*
X0133897Y0010309D01*
X0133747Y0010258D01*
X0133596Y0010211D01*
X0133443Y0010168D01*
X0133290Y0010129D01*
X0133136Y0010093D01*
X0132981Y0010062D01*
X0132825Y0010034D01*
X0132668Y0010010D01*
X0132511Y0009990D01*
X0132353Y0009974D01*
X0132196Y0009962D01*
X0132037Y0009954D01*
X0131879Y0009950D01*
X0131721Y0009950D01*
X0131563Y0009954D01*
X0131404Y0009962D01*
X0131247Y0009974D01*
X0131089Y0009990D01*
X0130932Y0010010D01*
X0130775Y0010034D01*
X0130619Y0010062D01*
X0130464Y0010093D01*
X0130310Y0010129D01*
X0130157Y0010168D01*
X0130004Y0010211D01*
X0129853Y0010258D01*
X0129703Y0010309D01*
X0129555Y0010364D01*
X0129407Y0010422D01*
X0129262Y0010484D01*
X0129118Y0010550D01*
X0128975Y0010619D01*
X0128835Y0010692D01*
X0128696Y0010768D01*
X0128559Y0010848D01*
X0128424Y0010931D01*
X0128292Y0011017D01*
X0128161Y0011107D01*
X0128033Y0011200D01*
X0127907Y0011296D01*
X0127784Y0011396D01*
X0127664Y0011498D01*
X0127545Y0011604D01*
X0127430Y0011712D01*
X0127317Y0011823D01*
X0127207Y0011937D01*
X0127101Y0012054D01*
X0126997Y0012174D01*
X0126896Y0012296D01*
X0126798Y0012420D01*
X0126703Y0012547D01*
X0126612Y0012676D01*
X0126524Y0012808D01*
X0126439Y0012941D01*
X0126357Y0013077D01*
X0126279Y0013215D01*
X0126205Y0013355D01*
X0126134Y0013496D01*
X0126066Y0013639D01*
X0126003Y0013784D01*
X0125942Y0013931D01*
X0125886Y0014079D01*
X0125833Y0014228D01*
X0125784Y0014379D01*
X0125739Y0014530D01*
X0125698Y0014683D01*
X0125660Y0014837D01*
X0125627Y0014992D01*
X0125597Y0015147D01*
X0125571Y0015304D01*
X0125550Y0015460D01*
X0125532Y0015618D01*
X0125518Y0015775D01*
X0125508Y0015933D01*
X0125502Y0016092D01*
X0125500Y0016250D01*
D12*
X0086800Y0021250D03*
X0086800Y0031250D03*
X0086800Y0041250D03*
X0086800Y0051250D03*
X0086800Y0061250D03*
X0086800Y0071250D03*
X0086800Y0081250D03*
X0086800Y0091250D03*
X0086800Y0101250D03*
X0086800Y0111250D03*
X0086800Y0121250D03*
X0086800Y0131250D03*
X0026800Y0131250D03*
X0026800Y0121250D03*
X0026800Y0111250D03*
X0026800Y0101250D03*
X0026800Y0091250D03*
X0026800Y0081250D03*
X0026800Y0071250D03*
X0026800Y0061250D03*
X0026800Y0051250D03*
X0026800Y0041250D03*
X0026800Y0031250D03*
X0026800Y0021250D03*
D13*
X0113800Y0016250D02*
X0119800Y0016250D01*
X0119800Y0026250D02*
X0113800Y0026250D01*
X0113800Y0041250D02*
X0119800Y0041250D01*
X0119800Y0051250D02*
X0113800Y0051250D01*
X0113800Y0061250D02*
X0119800Y0061250D01*
X0119800Y0071250D02*
X0113800Y0071250D01*
X0113800Y0081250D02*
X0119800Y0081250D01*
X0119800Y0091250D02*
X0113800Y0091250D01*
X0113800Y0101250D02*
X0119800Y0101250D01*
X0119800Y0121250D02*
X0113800Y0121250D01*
X0113800Y0131250D02*
X0119800Y0131250D01*
X0119800Y0156250D02*
X0113800Y0156250D01*
X0113800Y0166250D02*
X0119800Y0166250D01*
D14*
X0033050Y0166250D03*
X0033050Y0156250D03*
X0033050Y0176250D03*
D15*
X0036225Y0172495D02*
X0136700Y0172495D01*
X0136700Y0170897D02*
X0034636Y0170897D01*
X0034025Y0171150D02*
X0035826Y0170404D01*
X0037204Y0169026D01*
X0037950Y0167225D01*
X0037950Y0165275D01*
X0037204Y0163474D01*
X0035826Y0162096D01*
X0034025Y0161350D01*
X0032075Y0161350D01*
X0030274Y0162096D01*
X0028896Y0163474D01*
X0028150Y0165275D01*
X0028150Y0167225D01*
X0028896Y0169026D01*
X0030274Y0170404D01*
X0032075Y0171150D01*
X0034025Y0171150D01*
X0034025Y0171350D02*
X0035826Y0172096D01*
X0037204Y0173474D01*
X0037950Y0175275D01*
X0037950Y0177225D01*
X0037204Y0179026D01*
X0035826Y0180404D01*
X0034025Y0181150D01*
X0032075Y0181150D01*
X0030274Y0180404D01*
X0028896Y0179026D01*
X0028150Y0177225D01*
X0028150Y0175275D01*
X0028896Y0173474D01*
X0030274Y0172096D01*
X0032075Y0171350D01*
X0034025Y0171350D01*
X0031464Y0170897D02*
X0006900Y0170897D01*
X0006900Y0172495D02*
X0029875Y0172495D01*
X0028639Y0174094D02*
X0006900Y0174094D01*
X0006900Y0175692D02*
X0028150Y0175692D01*
X0028177Y0177291D02*
X0006900Y0177291D01*
X0006900Y0178889D02*
X0028839Y0178889D01*
X0030477Y0180488D02*
X0006900Y0180488D01*
X0006900Y0181150D02*
X0136700Y0181150D01*
X0136700Y0141238D01*
X0136084Y0141594D01*
X0133261Y0142350D01*
X0130339Y0142350D01*
X0127516Y0141594D01*
X0124984Y0140132D01*
X0122918Y0138066D01*
X0121456Y0135534D01*
X0121406Y0135347D01*
X0120675Y0135650D01*
X0112925Y0135650D01*
X0111308Y0134980D01*
X0110070Y0133742D01*
X0109400Y0132125D01*
X0109400Y0130375D01*
X0110070Y0128758D01*
X0111308Y0127520D01*
X0112925Y0126850D01*
X0120675Y0126850D01*
X0121406Y0127153D01*
X0121456Y0126966D01*
X0122437Y0125267D01*
X0122316Y0125355D01*
X0121643Y0125698D01*
X0120924Y0125932D01*
X0120178Y0126050D01*
X0117000Y0126050D01*
X0117000Y0121450D01*
X0124600Y0121450D01*
X0124600Y0121628D01*
X0124482Y0122374D01*
X0124248Y0123093D01*
X0124237Y0123116D01*
X0124984Y0122368D01*
X0127516Y0120906D01*
X0130339Y0120150D01*
X0133261Y0120150D01*
X0136084Y0120906D01*
X0136700Y0121262D01*
X0136700Y0026238D01*
X0136084Y0026594D01*
X0133261Y0027350D01*
X0130339Y0027350D01*
X0127516Y0026594D01*
X0124984Y0025132D01*
X0124237Y0024384D01*
X0124248Y0024407D01*
X0124482Y0025126D01*
X0124600Y0025872D01*
X0124600Y0026050D01*
X0117000Y0026050D01*
X0117000Y0026450D01*
X0116600Y0026450D01*
X0116600Y0031050D01*
X0113422Y0031050D01*
X0112676Y0030932D01*
X0111957Y0030698D01*
X0111284Y0030355D01*
X0110673Y0029911D01*
X0110139Y0029377D01*
X0109695Y0028766D01*
X0109352Y0028093D01*
X0109118Y0027374D01*
X0109000Y0026628D01*
X0109000Y0026450D01*
X0116600Y0026450D01*
X0116600Y0026050D01*
X0117000Y0026050D01*
X0117000Y0021450D01*
X0120178Y0021450D01*
X0120924Y0021568D01*
X0121643Y0021802D01*
X0122316Y0022145D01*
X0122437Y0022233D01*
X0121456Y0020534D01*
X0121406Y0020347D01*
X0120675Y0020650D01*
X0112925Y0020650D01*
X0111308Y0019980D01*
X0110070Y0018742D01*
X0109949Y0018450D01*
X0095889Y0018450D01*
X0094600Y0017161D01*
X0090989Y0013550D01*
X0083791Y0013550D01*
X0074100Y0023241D01*
X0074100Y0085439D01*
X0082248Y0093586D01*
X0081700Y0092264D01*
X0081700Y0090236D01*
X0082476Y0088361D01*
X0083911Y0086926D01*
X0085544Y0086250D01*
X0083911Y0085574D01*
X0082476Y0084139D01*
X0081700Y0082264D01*
X0081700Y0080236D01*
X0082476Y0078361D01*
X0083911Y0076926D01*
X0085544Y0076250D01*
X0083911Y0075574D01*
X0082476Y0074139D01*
X0081700Y0072264D01*
X0081700Y0070236D01*
X0082476Y0068361D01*
X0083911Y0066926D01*
X0085544Y0066250D01*
X0083911Y0065574D01*
X0082476Y0064139D01*
X0081700Y0062264D01*
X0081700Y0060236D01*
X0082476Y0058361D01*
X0083911Y0056926D01*
X0085037Y0056460D01*
X0084689Y0056347D01*
X0083917Y0055954D01*
X0083217Y0055445D01*
X0082605Y0054833D01*
X0082096Y0054133D01*
X0081703Y0053361D01*
X0081435Y0052538D01*
X0081300Y0051683D01*
X0081300Y0051450D01*
X0086600Y0051450D01*
X0086600Y0051050D01*
X0087000Y0051050D01*
X0087000Y0051450D01*
X0092300Y0051450D01*
X0092300Y0051683D01*
X0092165Y0052538D01*
X0091897Y0053361D01*
X0091504Y0054133D01*
X0090995Y0054833D01*
X0090383Y0055445D01*
X0089683Y0055954D01*
X0088911Y0056347D01*
X0088563Y0056460D01*
X0089689Y0056926D01*
X0091124Y0058361D01*
X0091900Y0060236D01*
X0091900Y0062264D01*
X0091124Y0064139D01*
X0089689Y0065574D01*
X0088056Y0066250D01*
X0089689Y0066926D01*
X0091124Y0068361D01*
X0091900Y0070236D01*
X0091900Y0072264D01*
X0091124Y0074139D01*
X0089689Y0075574D01*
X0088056Y0076250D01*
X0089689Y0076926D01*
X0091124Y0078361D01*
X0091900Y0080236D01*
X0091900Y0082264D01*
X0091124Y0084139D01*
X0089689Y0085574D01*
X0088056Y0086250D01*
X0089689Y0086926D01*
X0091124Y0088361D01*
X0091900Y0090236D01*
X0091900Y0092264D01*
X0091124Y0094139D01*
X0089689Y0095574D01*
X0088056Y0096250D01*
X0089689Y0096926D01*
X0091124Y0098361D01*
X0091900Y0100236D01*
X0091900Y0102264D01*
X0091124Y0104139D01*
X0089689Y0105574D01*
X0088056Y0106250D01*
X0089689Y0106926D01*
X0091124Y0108361D01*
X0091900Y0110236D01*
X0091900Y0112264D01*
X0091124Y0114139D01*
X0089689Y0115574D01*
X0088056Y0116250D01*
X0089689Y0116926D01*
X0091124Y0118361D01*
X0091900Y0120236D01*
X0091900Y0122264D01*
X0091124Y0124139D01*
X0089689Y0125574D01*
X0088056Y0126250D01*
X0089689Y0126926D01*
X0091124Y0128361D01*
X0091900Y0130236D01*
X0091900Y0132264D01*
X0091124Y0134139D01*
X0089689Y0135574D01*
X0087814Y0136350D01*
X0085786Y0136350D01*
X0083911Y0135574D01*
X0082476Y0134139D01*
X0081700Y0132264D01*
X0081700Y0130236D01*
X0082476Y0128361D01*
X0083911Y0126926D01*
X0085544Y0126250D01*
X0083911Y0125574D01*
X0082476Y0124139D01*
X0081700Y0122264D01*
X0081700Y0120236D01*
X0082476Y0118361D01*
X0083911Y0116926D01*
X0085544Y0116250D01*
X0083911Y0115574D01*
X0082476Y0114139D01*
X0081700Y0112264D01*
X0081700Y0110236D01*
X0082476Y0108361D01*
X0083911Y0106926D01*
X0085544Y0106250D01*
X0083911Y0105574D01*
X0082476Y0104139D01*
X0081700Y0102264D01*
X0081700Y0100236D01*
X0081985Y0099547D01*
X0070989Y0088550D01*
X0070989Y0088550D01*
X0069700Y0087261D01*
X0069700Y0021418D01*
X0070989Y0020130D01*
X0079768Y0011350D01*
X0021788Y0011350D01*
X0022144Y0011966D01*
X0022900Y0014789D01*
X0022900Y0017711D01*
X0022817Y0018020D01*
X0023911Y0016926D01*
X0025786Y0016150D01*
X0027814Y0016150D01*
X0029689Y0016926D01*
X0031124Y0018361D01*
X0031900Y0020236D01*
X0031900Y0022264D01*
X0031124Y0024139D01*
X0029689Y0025574D01*
X0028563Y0026040D01*
X0028911Y0026153D01*
X0029683Y0026546D01*
X0030383Y0027055D01*
X0030995Y0027667D01*
X0031504Y0028367D01*
X0031897Y0029139D01*
X0032165Y0029962D01*
X0032300Y0030817D01*
X0032300Y0031050D01*
X0027000Y0031050D01*
X0027000Y0031450D01*
X0032300Y0031450D01*
X0032300Y0031683D01*
X0032165Y0032538D01*
X0031897Y0033361D01*
X0031504Y0034133D01*
X0030995Y0034833D01*
X0030383Y0035445D01*
X0029683Y0035954D01*
X0028911Y0036347D01*
X0028563Y0036460D01*
X0029689Y0036926D01*
X0031124Y0038361D01*
X0031900Y0040236D01*
X0031900Y0042264D01*
X0031124Y0044139D01*
X0029689Y0045574D01*
X0028056Y0046250D01*
X0029689Y0046926D01*
X0031124Y0048361D01*
X0031900Y0050236D01*
X0031900Y0052264D01*
X0031124Y0054139D01*
X0029689Y0055574D01*
X0028056Y0056250D01*
X0029689Y0056926D01*
X0031124Y0058361D01*
X0031900Y0060236D01*
X0031900Y0062264D01*
X0031124Y0064139D01*
X0029689Y0065574D01*
X0028056Y0066250D01*
X0029689Y0066926D01*
X0031124Y0068361D01*
X0031900Y0070236D01*
X0031900Y0072264D01*
X0031124Y0074139D01*
X0029689Y0075574D01*
X0028056Y0076250D01*
X0029689Y0076926D01*
X0031124Y0078361D01*
X0031900Y0080236D01*
X0031900Y0082264D01*
X0031124Y0084139D01*
X0029689Y0085574D01*
X0028056Y0086250D01*
X0029689Y0086926D01*
X0031124Y0088361D01*
X0031900Y0090236D01*
X0031900Y0092264D01*
X0031124Y0094139D01*
X0029689Y0095574D01*
X0028056Y0096250D01*
X0029689Y0096926D01*
X0031124Y0098361D01*
X0031900Y0100236D01*
X0031900Y0102264D01*
X0031124Y0104139D01*
X0029689Y0105574D01*
X0028056Y0106250D01*
X0029689Y0106926D01*
X0031124Y0108361D01*
X0031900Y0110236D01*
X0031900Y0112264D01*
X0031124Y0114139D01*
X0029689Y0115574D01*
X0028056Y0116250D01*
X0029689Y0116926D01*
X0031124Y0118361D01*
X0031900Y0120236D01*
X0031900Y0122264D01*
X0031124Y0124139D01*
X0029689Y0125574D01*
X0028056Y0126250D01*
X0029689Y0126926D01*
X0031124Y0128361D01*
X0031900Y0130236D01*
X0031900Y0132264D01*
X0031124Y0134139D01*
X0029689Y0135574D01*
X0027814Y0136350D01*
X0025786Y0136350D01*
X0023911Y0135574D01*
X0022509Y0134171D01*
X0022144Y0135534D01*
X0020682Y0138066D01*
X0018616Y0140132D01*
X0016084Y0141594D01*
X0013261Y0142350D01*
X0010339Y0142350D01*
X0007516Y0141594D01*
X0006900Y0141238D01*
X0006900Y0181150D01*
X0006900Y0169298D02*
X0029169Y0169298D01*
X0028347Y0167700D02*
X0006900Y0167700D01*
X0006900Y0166101D02*
X0028150Y0166101D01*
X0028470Y0164503D02*
X0006900Y0164503D01*
X0006900Y0162904D02*
X0029466Y0162904D01*
X0030274Y0160404D02*
X0028896Y0159026D01*
X0028150Y0157225D01*
X0028150Y0155275D01*
X0028896Y0153474D01*
X0030274Y0152096D01*
X0032075Y0151350D01*
X0034025Y0151350D01*
X0035826Y0152096D01*
X0037204Y0153474D01*
X0037950Y0155275D01*
X0037950Y0157225D01*
X0037204Y0159026D01*
X0035826Y0160404D01*
X0034025Y0161150D01*
X0032075Y0161150D01*
X0030274Y0160404D01*
X0029577Y0159707D02*
X0006900Y0159707D01*
X0006900Y0158109D02*
X0028516Y0158109D01*
X0028150Y0156510D02*
X0006900Y0156510D01*
X0006900Y0154912D02*
X0028301Y0154912D01*
X0029057Y0153313D02*
X0006900Y0153313D01*
X0006900Y0151715D02*
X0031195Y0151715D01*
X0034905Y0151715D02*
X0136700Y0151715D01*
X0136700Y0153313D02*
X0123086Y0153313D01*
X0123530Y0153758D02*
X0122292Y0152520D01*
X0120675Y0151850D01*
X0112925Y0151850D01*
X0111308Y0152520D01*
X0110070Y0153758D01*
X0109400Y0155375D01*
X0109400Y0157125D01*
X0110070Y0158742D01*
X0111308Y0159980D01*
X0112925Y0160650D01*
X0120675Y0160650D01*
X0122292Y0159980D01*
X0123530Y0158742D01*
X0124200Y0157125D01*
X0124200Y0155375D01*
X0123530Y0153758D01*
X0124008Y0154912D02*
X0136700Y0154912D01*
X0136700Y0156510D02*
X0124200Y0156510D01*
X0123793Y0158109D02*
X0136700Y0158109D01*
X0136700Y0159707D02*
X0122565Y0159707D01*
X0122292Y0162520D02*
X0120675Y0161850D01*
X0112925Y0161850D01*
X0111308Y0162520D01*
X0110070Y0163758D01*
X0109400Y0165375D01*
X0109400Y0167125D01*
X0110070Y0168742D01*
X0111308Y0169980D01*
X0112925Y0170650D01*
X0120675Y0170650D01*
X0122292Y0169980D01*
X0123530Y0168742D01*
X0124200Y0167125D01*
X0124200Y0165375D01*
X0123530Y0163758D01*
X0122292Y0162520D01*
X0122677Y0162904D02*
X0136700Y0162904D01*
X0136700Y0161306D02*
X0006900Y0161306D01*
X0006900Y0150116D02*
X0136700Y0150116D01*
X0136700Y0148518D02*
X0006900Y0148518D01*
X0006900Y0146919D02*
X0136700Y0146919D01*
X0136700Y0145320D02*
X0006900Y0145320D01*
X0006900Y0143722D02*
X0136700Y0143722D01*
X0136700Y0142123D02*
X0134107Y0142123D01*
X0129493Y0142123D02*
X0014107Y0142123D01*
X0017935Y0140525D02*
X0125665Y0140525D01*
X0123779Y0138926D02*
X0019821Y0138926D01*
X0021108Y0137328D02*
X0122492Y0137328D01*
X0121569Y0135729D02*
X0089313Y0135729D01*
X0091127Y0134131D02*
X0110458Y0134131D01*
X0109569Y0132532D02*
X0091789Y0132532D01*
X0091900Y0130934D02*
X0109400Y0130934D01*
X0109831Y0129335D02*
X0091527Y0129335D01*
X0090499Y0127737D02*
X0111091Y0127737D01*
X0111957Y0125698D02*
X0111284Y0125355D01*
X0110673Y0124911D01*
X0110139Y0124377D01*
X0109695Y0123766D01*
X0109352Y0123093D01*
X0109118Y0122374D01*
X0109000Y0121628D01*
X0109000Y0121450D01*
X0116600Y0121450D01*
X0116600Y0126050D01*
X0113422Y0126050D01*
X0112676Y0125932D01*
X0111957Y0125698D01*
X0110302Y0124540D02*
X0090723Y0124540D01*
X0091620Y0122941D02*
X0109303Y0122941D01*
X0109000Y0121050D02*
X0109000Y0120872D01*
X0109118Y0120126D01*
X0109352Y0119407D01*
X0109695Y0118734D01*
X0110139Y0118123D01*
X0110673Y0117589D01*
X0111284Y0117145D01*
X0111957Y0116802D01*
X0112676Y0116568D01*
X0113422Y0116450D01*
X0116600Y0116450D01*
X0116600Y0121050D01*
X0117000Y0121050D01*
X0117000Y0121450D01*
X0116600Y0121450D01*
X0116600Y0121050D01*
X0109000Y0121050D01*
X0109242Y0119744D02*
X0091697Y0119744D01*
X0091900Y0121343D02*
X0116600Y0121343D01*
X0117000Y0121343D02*
X0126760Y0121343D01*
X0124600Y0121050D02*
X0117000Y0121050D01*
X0117000Y0116450D01*
X0120178Y0116450D01*
X0120924Y0116568D01*
X0121643Y0116802D01*
X0122316Y0117145D01*
X0122927Y0117589D01*
X0123461Y0118123D01*
X0123905Y0118734D01*
X0124248Y0119407D01*
X0124482Y0120126D01*
X0124600Y0120872D01*
X0124600Y0121050D01*
X0124358Y0119744D02*
X0136700Y0119744D01*
X0136700Y0118146D02*
X0123478Y0118146D01*
X0120792Y0116547D02*
X0136700Y0116547D01*
X0136700Y0114949D02*
X0090314Y0114949D01*
X0091450Y0113350D02*
X0136700Y0113350D01*
X0136700Y0111752D02*
X0091900Y0111752D01*
X0091866Y0110153D02*
X0136700Y0110153D01*
X0136700Y0108555D02*
X0091204Y0108555D01*
X0089719Y0106956D02*
X0136700Y0106956D01*
X0136700Y0105358D02*
X0121381Y0105358D01*
X0120675Y0105650D02*
X0112925Y0105650D01*
X0111308Y0104980D01*
X0110070Y0103742D01*
X0109400Y0102125D01*
X0109400Y0100375D01*
X0110070Y0098758D01*
X0111308Y0097520D01*
X0112925Y0096850D01*
X0120675Y0096850D01*
X0122292Y0097520D01*
X0123530Y0098758D01*
X0124200Y0100375D01*
X0124200Y0102125D01*
X0123530Y0103742D01*
X0122292Y0104980D01*
X0120675Y0105650D01*
X0123513Y0103759D02*
X0136700Y0103759D01*
X0136700Y0102161D02*
X0124185Y0102161D01*
X0124200Y0100562D02*
X0136700Y0100562D01*
X0136700Y0098964D02*
X0123615Y0098964D01*
X0121919Y0097365D02*
X0136700Y0097365D01*
X0136700Y0095767D02*
X0089223Y0095767D01*
X0090128Y0097365D02*
X0111681Y0097365D01*
X0112925Y0095650D02*
X0111308Y0094980D01*
X0110070Y0093742D01*
X0109400Y0092125D01*
X0109400Y0090375D01*
X0110070Y0088758D01*
X0111308Y0087520D01*
X0112925Y0086850D01*
X0120675Y0086850D01*
X0122292Y0087520D01*
X0123530Y0088758D01*
X0124200Y0090375D01*
X0124200Y0092125D01*
X0123530Y0093742D01*
X0122292Y0094980D01*
X0120675Y0095650D01*
X0112925Y0095650D01*
X0110496Y0094168D02*
X0091094Y0094168D01*
X0091774Y0092570D02*
X0109584Y0092570D01*
X0109400Y0090971D02*
X0091900Y0090971D01*
X0091543Y0089373D02*
X0109815Y0089373D01*
X0111053Y0087774D02*
X0090537Y0087774D01*
X0088236Y0086176D02*
X0136700Y0086176D01*
X0136700Y0087774D02*
X0122547Y0087774D01*
X0123785Y0089373D02*
X0136700Y0089373D01*
X0136700Y0090971D02*
X0124200Y0090971D01*
X0124016Y0092570D02*
X0136700Y0092570D01*
X0136700Y0094168D02*
X0123104Y0094168D01*
X0120924Y0085932D02*
X0120178Y0086050D01*
X0117000Y0086050D01*
X0117000Y0081450D01*
X0116600Y0081450D01*
X0116600Y0086050D01*
X0113422Y0086050D01*
X0112676Y0085932D01*
X0111957Y0085698D01*
X0111284Y0085355D01*
X0110673Y0084911D01*
X0110139Y0084377D01*
X0109695Y0083766D01*
X0109352Y0083093D01*
X0109118Y0082374D01*
X0109000Y0081628D01*
X0109000Y0081450D01*
X0116600Y0081450D01*
X0116600Y0081050D01*
X0117000Y0081050D01*
X0117000Y0081450D01*
X0124600Y0081450D01*
X0124600Y0081628D01*
X0124482Y0082374D01*
X0124248Y0083093D01*
X0123905Y0083766D01*
X0123461Y0084377D01*
X0122927Y0084911D01*
X0122316Y0085355D01*
X0121643Y0085698D01*
X0120924Y0085932D01*
X0123261Y0084577D02*
X0136700Y0084577D01*
X0136700Y0082979D02*
X0124285Y0082979D01*
X0124600Y0081050D02*
X0117000Y0081050D01*
X0117000Y0076450D01*
X0120178Y0076450D01*
X0120924Y0076568D01*
X0121643Y0076802D01*
X0122316Y0077145D01*
X0122927Y0077589D01*
X0123461Y0078123D01*
X0123905Y0078734D01*
X0124248Y0079407D01*
X0124482Y0080126D01*
X0124600Y0080872D01*
X0124600Y0081050D01*
X0124370Y0079782D02*
X0136700Y0079782D01*
X0136700Y0081380D02*
X0117000Y0081380D01*
X0116600Y0081380D02*
X0091900Y0081380D01*
X0091712Y0079782D02*
X0109230Y0079782D01*
X0109118Y0080126D02*
X0109352Y0079407D01*
X0109695Y0078734D01*
X0110139Y0078123D01*
X0110673Y0077589D01*
X0111284Y0077145D01*
X0111957Y0076802D01*
X0112676Y0076568D01*
X0113422Y0076450D01*
X0116600Y0076450D01*
X0116600Y0081050D01*
X0109000Y0081050D01*
X0109000Y0080872D01*
X0109118Y0080126D01*
X0110095Y0078183D02*
X0090945Y0078183D01*
X0088863Y0076584D02*
X0112626Y0076584D01*
X0112925Y0075650D02*
X0111308Y0074980D01*
X0110070Y0073742D01*
X0109400Y0072125D01*
X0109400Y0070375D01*
X0110070Y0068758D01*
X0111308Y0067520D01*
X0112925Y0066850D01*
X0120675Y0066850D01*
X0122292Y0067520D01*
X0123530Y0068758D01*
X0124200Y0070375D01*
X0124200Y0072125D01*
X0123530Y0073742D01*
X0122292Y0074980D01*
X0120675Y0075650D01*
X0112925Y0075650D01*
X0111322Y0074986D02*
X0090276Y0074986D01*
X0091435Y0073387D02*
X0109923Y0073387D01*
X0109400Y0071789D02*
X0091900Y0071789D01*
X0091881Y0070190D02*
X0109476Y0070190D01*
X0110236Y0068592D02*
X0091219Y0068592D01*
X0089756Y0066993D02*
X0112578Y0066993D01*
X0112925Y0065650D02*
X0111308Y0064980D01*
X0110070Y0063742D01*
X0109400Y0062125D01*
X0109400Y0060375D01*
X0110070Y0058758D01*
X0111308Y0057520D01*
X0112925Y0056850D01*
X0120675Y0056850D01*
X0122292Y0057520D01*
X0123530Y0058758D01*
X0124200Y0060375D01*
X0124200Y0062125D01*
X0123530Y0063742D01*
X0122292Y0064980D01*
X0120675Y0065650D01*
X0112925Y0065650D01*
X0112309Y0065395D02*
X0089868Y0065395D01*
X0091265Y0063796D02*
X0110124Y0063796D01*
X0109430Y0062198D02*
X0091900Y0062198D01*
X0091900Y0060599D02*
X0109400Y0060599D01*
X0109969Y0059001D02*
X0091389Y0059001D01*
X0090165Y0057402D02*
X0111591Y0057402D01*
X0112925Y0055650D02*
X0111308Y0054980D01*
X0110070Y0053742D01*
X0109400Y0052125D01*
X0109400Y0050375D01*
X0110070Y0048758D01*
X0111308Y0047520D01*
X0112925Y0046850D01*
X0120675Y0046850D01*
X0122292Y0047520D01*
X0123530Y0048758D01*
X0124200Y0050375D01*
X0124200Y0052125D01*
X0123530Y0053742D01*
X0122292Y0054980D01*
X0120675Y0055650D01*
X0112925Y0055650D01*
X0110533Y0054205D02*
X0091451Y0054205D01*
X0092142Y0052607D02*
X0109599Y0052607D01*
X0109400Y0051008D02*
X0092300Y0051008D01*
X0092300Y0051050D02*
X0087000Y0051050D01*
X0087000Y0045750D01*
X0087000Y0041450D01*
X0086600Y0041450D01*
X0086600Y0051050D01*
X0081300Y0051050D01*
X0081300Y0050817D01*
X0081435Y0049962D01*
X0081703Y0049139D01*
X0082096Y0048367D01*
X0082605Y0047667D01*
X0083217Y0047055D01*
X0083917Y0046546D01*
X0084498Y0046250D01*
X0083917Y0045954D01*
X0083217Y0045445D01*
X0082605Y0044833D01*
X0082096Y0044133D01*
X0081703Y0043361D01*
X0081435Y0042538D01*
X0081300Y0041683D01*
X0081300Y0041450D01*
X0086600Y0041450D01*
X0086600Y0041050D01*
X0081300Y0041050D01*
X0081300Y0040817D01*
X0081435Y0039962D01*
X0081703Y0039139D01*
X0082096Y0038367D01*
X0082605Y0037667D01*
X0083217Y0037055D01*
X0083917Y0036546D01*
X0084689Y0036153D01*
X0085037Y0036040D01*
X0083911Y0035574D01*
X0082476Y0034139D01*
X0081700Y0032264D01*
X0081700Y0030236D01*
X0082476Y0028361D01*
X0083911Y0026926D01*
X0085544Y0026250D01*
X0083911Y0025574D01*
X0082476Y0024139D01*
X0081700Y0022264D01*
X0081700Y0020236D01*
X0082476Y0018361D01*
X0083911Y0016926D01*
X0085786Y0016150D01*
X0087814Y0016150D01*
X0089689Y0016926D01*
X0091124Y0018361D01*
X0091900Y0020236D01*
X0091900Y0022264D01*
X0091124Y0024139D01*
X0089689Y0025574D01*
X0088056Y0026250D01*
X0089689Y0026926D01*
X0091124Y0028361D01*
X0091900Y0030236D01*
X0091900Y0032264D01*
X0091124Y0034139D01*
X0089689Y0035574D01*
X0088563Y0036040D01*
X0088911Y0036153D01*
X0089683Y0036546D01*
X0090383Y0037055D01*
X0090995Y0037667D01*
X0091504Y0038367D01*
X0091897Y0039139D01*
X0092165Y0039962D01*
X0092300Y0040817D01*
X0092300Y0041050D01*
X0087000Y0041050D01*
X0087000Y0041450D01*
X0092300Y0041450D01*
X0092300Y0041683D01*
X0092165Y0042538D01*
X0091897Y0043361D01*
X0091504Y0044133D01*
X0090995Y0044833D01*
X0090383Y0045445D01*
X0089683Y0045954D01*
X0089102Y0046250D01*
X0089683Y0046546D01*
X0090383Y0047055D01*
X0090995Y0047667D01*
X0091504Y0048367D01*
X0091897Y0049139D01*
X0092165Y0049962D01*
X0092300Y0050817D01*
X0092300Y0051050D01*
X0091985Y0049410D02*
X0109800Y0049410D01*
X0111016Y0047811D02*
X0091100Y0047811D01*
X0089175Y0046213D02*
X0136700Y0046213D01*
X0136700Y0047811D02*
X0122584Y0047811D01*
X0123800Y0049410D02*
X0136700Y0049410D01*
X0136700Y0051008D02*
X0124200Y0051008D01*
X0124001Y0052607D02*
X0136700Y0052607D01*
X0136700Y0054205D02*
X0123067Y0054205D01*
X0122009Y0057402D02*
X0136700Y0057402D01*
X0136700Y0055804D02*
X0089889Y0055804D01*
X0087000Y0051008D02*
X0086600Y0051008D01*
X0086600Y0049410D02*
X0087000Y0049410D01*
X0087000Y0047811D02*
X0086600Y0047811D01*
X0086600Y0046213D02*
X0087000Y0046213D01*
X0087000Y0044614D02*
X0086600Y0044614D01*
X0086600Y0043016D02*
X0087000Y0043016D01*
X0087000Y0041417D02*
X0109400Y0041417D01*
X0109400Y0042125D02*
X0109400Y0040375D01*
X0110070Y0038758D01*
X0111308Y0037520D01*
X0112925Y0036850D01*
X0120675Y0036850D01*
X0122292Y0037520D01*
X0123530Y0038758D01*
X0124200Y0040375D01*
X0124200Y0042125D01*
X0123530Y0043742D01*
X0122292Y0044980D01*
X0120675Y0045650D01*
X0112925Y0045650D01*
X0111308Y0044980D01*
X0110070Y0043742D01*
X0109400Y0042125D01*
X0109769Y0043016D02*
X0092009Y0043016D01*
X0091154Y0044614D02*
X0110942Y0044614D01*
X0109630Y0039819D02*
X0092118Y0039819D01*
X0091397Y0038220D02*
X0110607Y0038220D01*
X0111109Y0030228D02*
X0091897Y0030228D01*
X0091900Y0031826D02*
X0136700Y0031826D01*
X0136700Y0030228D02*
X0122491Y0030228D01*
X0122316Y0030355D02*
X0121643Y0030698D01*
X0120924Y0030932D01*
X0120178Y0031050D01*
X0117000Y0031050D01*
X0117000Y0026450D01*
X0124600Y0026450D01*
X0124600Y0026628D01*
X0124482Y0027374D01*
X0124248Y0028093D01*
X0123905Y0028766D01*
X0123461Y0029377D01*
X0122927Y0029911D01*
X0122316Y0030355D01*
X0123975Y0028629D02*
X0136700Y0028629D01*
X0136700Y0027031D02*
X0134453Y0027031D01*
X0136700Y0033425D02*
X0091419Y0033425D01*
X0090239Y0035023D02*
X0136700Y0035023D01*
X0136700Y0036622D02*
X0089787Y0036622D01*
X0086600Y0041417D02*
X0074100Y0041417D01*
X0074100Y0039819D02*
X0081482Y0039819D01*
X0082203Y0038220D02*
X0074100Y0038220D01*
X0074100Y0036622D02*
X0083813Y0036622D01*
X0083361Y0035023D02*
X0074100Y0035023D01*
X0074100Y0033425D02*
X0082181Y0033425D01*
X0081700Y0031826D02*
X0074100Y0031826D01*
X0074100Y0030228D02*
X0081703Y0030228D01*
X0082365Y0028629D02*
X0074100Y0028629D01*
X0074100Y0027031D02*
X0083807Y0027031D01*
X0083770Y0025432D02*
X0074100Y0025432D01*
X0074100Y0023834D02*
X0082350Y0023834D01*
X0081700Y0022235D02*
X0075106Y0022235D01*
X0076704Y0020637D02*
X0081700Y0020637D01*
X0082196Y0019038D02*
X0078303Y0019038D01*
X0079901Y0017440D02*
X0083398Y0017440D01*
X0081500Y0015841D02*
X0093280Y0015841D01*
X0094600Y0017161D02*
X0094600Y0017161D01*
X0094878Y0017440D02*
X0090202Y0017440D01*
X0091404Y0019038D02*
X0110366Y0019038D01*
X0111957Y0021802D02*
X0112676Y0021568D01*
X0113422Y0021450D01*
X0116600Y0021450D01*
X0116600Y0026050D01*
X0109000Y0026050D01*
X0109000Y0025872D01*
X0109118Y0025126D01*
X0109352Y0024407D01*
X0109695Y0023734D01*
X0110139Y0023123D01*
X0110673Y0022589D01*
X0111284Y0022145D01*
X0111957Y0021802D01*
X0111160Y0022235D02*
X0091900Y0022235D01*
X0091900Y0020637D02*
X0112892Y0020637D01*
X0109644Y0023834D02*
X0091250Y0023834D01*
X0089830Y0025432D02*
X0109070Y0025432D01*
X0109064Y0027031D02*
X0089793Y0027031D01*
X0091235Y0028629D02*
X0109625Y0028629D01*
X0116600Y0028629D02*
X0117000Y0028629D01*
X0117000Y0027031D02*
X0116600Y0027031D01*
X0116600Y0025432D02*
X0117000Y0025432D01*
X0117000Y0023834D02*
X0116600Y0023834D01*
X0116600Y0022235D02*
X0117000Y0022235D01*
X0120708Y0020637D02*
X0121515Y0020637D01*
X0124530Y0025432D02*
X0125504Y0025432D01*
X0124536Y0027031D02*
X0129147Y0027031D01*
X0122993Y0038220D02*
X0136700Y0038220D01*
X0136700Y0039819D02*
X0123970Y0039819D01*
X0124200Y0041417D02*
X0136700Y0041417D01*
X0136700Y0043016D02*
X0123831Y0043016D01*
X0122658Y0044614D02*
X0136700Y0044614D01*
X0136700Y0059001D02*
X0123631Y0059001D01*
X0124200Y0060599D02*
X0136700Y0060599D01*
X0136700Y0062198D02*
X0124170Y0062198D01*
X0123476Y0063796D02*
X0136700Y0063796D01*
X0136700Y0065395D02*
X0121291Y0065395D01*
X0121021Y0066993D02*
X0136700Y0066993D01*
X0136700Y0068592D02*
X0123364Y0068592D01*
X0124124Y0070190D02*
X0136700Y0070190D01*
X0136700Y0071789D02*
X0124200Y0071789D01*
X0123677Y0073387D02*
X0136700Y0073387D01*
X0136700Y0074986D02*
X0122278Y0074986D01*
X0120974Y0076584D02*
X0136700Y0076584D01*
X0136700Y0078183D02*
X0123505Y0078183D01*
X0117000Y0078183D02*
X0116600Y0078183D01*
X0116600Y0076584D02*
X0117000Y0076584D01*
X0117000Y0079782D02*
X0116600Y0079782D01*
X0116600Y0082979D02*
X0117000Y0082979D01*
X0117000Y0084577D02*
X0116600Y0084577D01*
X0110339Y0084577D02*
X0090685Y0084577D01*
X0091604Y0082979D02*
X0109315Y0082979D01*
X0109984Y0098964D02*
X0091373Y0098964D01*
X0091900Y0100562D02*
X0109400Y0100562D01*
X0109415Y0102161D02*
X0091900Y0102161D01*
X0091281Y0103759D02*
X0110087Y0103759D01*
X0112219Y0105358D02*
X0089905Y0105358D01*
X0086800Y0101250D02*
X0071900Y0086350D01*
X0071900Y0022330D01*
X0082880Y0011350D01*
X0091900Y0011350D01*
X0096800Y0016250D01*
X0116800Y0016250D01*
X0116600Y0030228D02*
X0117000Y0030228D01*
X0091681Y0014243D02*
X0083098Y0014243D01*
X0078474Y0012644D02*
X0022325Y0012644D01*
X0022754Y0014243D02*
X0076876Y0014243D01*
X0075277Y0015841D02*
X0022900Y0015841D01*
X0022900Y0017440D02*
X0023398Y0017440D01*
X0021700Y0021303D02*
X0020682Y0023066D01*
X0018616Y0025132D01*
X0016084Y0026594D01*
X0013261Y0027350D01*
X0010339Y0027350D01*
X0007516Y0026594D01*
X0006900Y0026238D01*
X0006900Y0121262D01*
X0007516Y0120906D01*
X0010339Y0120150D01*
X0013261Y0120150D01*
X0016084Y0120906D01*
X0018616Y0122368D01*
X0020682Y0124434D01*
X0022144Y0126966D01*
X0022509Y0128329D01*
X0023911Y0126926D01*
X0025544Y0126250D01*
X0023911Y0125574D01*
X0022476Y0124139D01*
X0021700Y0122264D01*
X0021700Y0120236D01*
X0022476Y0118361D01*
X0023911Y0116926D01*
X0025544Y0116250D01*
X0023911Y0115574D01*
X0022476Y0114139D01*
X0021700Y0112264D01*
X0021700Y0110236D01*
X0022476Y0108361D01*
X0023911Y0106926D01*
X0025544Y0106250D01*
X0023911Y0105574D01*
X0022476Y0104139D01*
X0021700Y0102264D01*
X0021700Y0100236D01*
X0022476Y0098361D01*
X0023911Y0096926D01*
X0025544Y0096250D01*
X0023911Y0095574D01*
X0022476Y0094139D01*
X0021700Y0092264D01*
X0021700Y0090236D01*
X0022476Y0088361D01*
X0023911Y0086926D01*
X0025544Y0086250D01*
X0023911Y0085574D01*
X0022476Y0084139D01*
X0021700Y0082264D01*
X0021700Y0080236D01*
X0022476Y0078361D01*
X0023911Y0076926D01*
X0025544Y0076250D01*
X0023911Y0075574D01*
X0022476Y0074139D01*
X0021700Y0072264D01*
X0021700Y0070236D01*
X0022476Y0068361D01*
X0023911Y0066926D01*
X0025544Y0066250D01*
X0023911Y0065574D01*
X0022476Y0064139D01*
X0021700Y0062264D01*
X0021700Y0060236D01*
X0022476Y0058361D01*
X0023911Y0056926D01*
X0025544Y0056250D01*
X0023911Y0055574D01*
X0022476Y0054139D01*
X0021700Y0052264D01*
X0021700Y0050236D01*
X0022476Y0048361D01*
X0023911Y0046926D01*
X0025544Y0046250D01*
X0023911Y0045574D01*
X0022476Y0044139D01*
X0021700Y0042264D01*
X0021700Y0040236D01*
X0022476Y0038361D01*
X0023911Y0036926D01*
X0025037Y0036460D01*
X0024689Y0036347D01*
X0023917Y0035954D01*
X0023217Y0035445D01*
X0022605Y0034833D01*
X0022096Y0034133D01*
X0021703Y0033361D01*
X0021435Y0032538D01*
X0021300Y0031683D01*
X0021300Y0031450D01*
X0026600Y0031450D01*
X0026600Y0031050D01*
X0021300Y0031050D01*
X0021300Y0030817D01*
X0021435Y0029962D01*
X0021703Y0029139D01*
X0022096Y0028367D01*
X0022605Y0027667D01*
X0023217Y0027055D01*
X0023917Y0026546D01*
X0024689Y0026153D01*
X0025037Y0026040D01*
X0023911Y0025574D01*
X0022476Y0024139D01*
X0021700Y0022264D01*
X0021700Y0021303D01*
X0021700Y0022235D02*
X0021162Y0022235D01*
X0022350Y0023834D02*
X0019914Y0023834D01*
X0018096Y0025432D02*
X0023770Y0025432D01*
X0023250Y0027031D02*
X0014453Y0027031D01*
X0009147Y0027031D02*
X0006900Y0027031D01*
X0006900Y0028629D02*
X0021963Y0028629D01*
X0021393Y0030228D02*
X0006900Y0030228D01*
X0006900Y0031826D02*
X0021323Y0031826D01*
X0021735Y0033425D02*
X0006900Y0033425D01*
X0006900Y0035023D02*
X0022795Y0035023D01*
X0024647Y0036622D02*
X0006900Y0036622D01*
X0006900Y0038220D02*
X0022617Y0038220D01*
X0021873Y0039819D02*
X0006900Y0039819D01*
X0006900Y0041417D02*
X0021700Y0041417D01*
X0022011Y0043016D02*
X0006900Y0043016D01*
X0006900Y0044614D02*
X0022952Y0044614D01*
X0025454Y0046213D02*
X0006900Y0046213D01*
X0006900Y0047811D02*
X0023026Y0047811D01*
X0022042Y0049410D02*
X0006900Y0049410D01*
X0006900Y0051008D02*
X0021700Y0051008D01*
X0021842Y0052607D02*
X0006900Y0052607D01*
X0006900Y0054205D02*
X0022543Y0054205D01*
X0024467Y0055804D02*
X0006900Y0055804D01*
X0006900Y0057402D02*
X0023435Y0057402D01*
X0022211Y0059001D02*
X0006900Y0059001D01*
X0006900Y0060599D02*
X0021700Y0060599D01*
X0021700Y0062198D02*
X0006900Y0062198D01*
X0006900Y0063796D02*
X0022335Y0063796D01*
X0023732Y0065395D02*
X0006900Y0065395D01*
X0006900Y0066993D02*
X0023844Y0066993D01*
X0022381Y0068592D02*
X0006900Y0068592D01*
X0006900Y0070190D02*
X0021719Y0070190D01*
X0021700Y0071789D02*
X0006900Y0071789D01*
X0006900Y0073387D02*
X0022165Y0073387D01*
X0023323Y0074986D02*
X0006900Y0074986D01*
X0006900Y0076584D02*
X0024737Y0076584D01*
X0022654Y0078183D02*
X0006900Y0078183D01*
X0006900Y0079782D02*
X0021888Y0079782D01*
X0021700Y0081380D02*
X0006900Y0081380D01*
X0006900Y0082979D02*
X0021996Y0082979D01*
X0022915Y0084577D02*
X0006900Y0084577D01*
X0006900Y0086176D02*
X0025364Y0086176D01*
X0023063Y0087774D02*
X0006900Y0087774D01*
X0006900Y0089373D02*
X0022057Y0089373D01*
X0021700Y0090971D02*
X0006900Y0090971D01*
X0006900Y0092570D02*
X0021826Y0092570D01*
X0022506Y0094168D02*
X0006900Y0094168D01*
X0006900Y0095767D02*
X0024377Y0095767D01*
X0023472Y0097365D02*
X0006900Y0097365D01*
X0006900Y0098964D02*
X0022227Y0098964D01*
X0021700Y0100562D02*
X0006900Y0100562D01*
X0006900Y0102161D02*
X0021700Y0102161D01*
X0022319Y0103759D02*
X0006900Y0103759D01*
X0006900Y0105358D02*
X0023695Y0105358D01*
X0023881Y0106956D02*
X0006900Y0106956D01*
X0006900Y0108555D02*
X0022396Y0108555D01*
X0021734Y0110153D02*
X0006900Y0110153D01*
X0006900Y0111752D02*
X0021700Y0111752D01*
X0022150Y0113350D02*
X0006900Y0113350D01*
X0006900Y0114949D02*
X0023286Y0114949D01*
X0024826Y0116547D02*
X0006900Y0116547D01*
X0006900Y0118146D02*
X0022692Y0118146D01*
X0021903Y0119744D02*
X0006900Y0119744D01*
X0016840Y0121343D02*
X0021700Y0121343D01*
X0021980Y0122941D02*
X0019189Y0122941D01*
X0020743Y0124540D02*
X0022877Y0124540D01*
X0021666Y0126138D02*
X0025275Y0126138D01*
X0023101Y0127737D02*
X0022350Y0127737D01*
X0028325Y0126138D02*
X0085275Y0126138D01*
X0083101Y0127737D02*
X0030499Y0127737D01*
X0031527Y0129335D02*
X0082073Y0129335D01*
X0081700Y0130934D02*
X0031900Y0130934D01*
X0031789Y0132532D02*
X0081811Y0132532D01*
X0082473Y0134131D02*
X0031127Y0134131D01*
X0029313Y0135729D02*
X0084287Y0135729D01*
X0088325Y0126138D02*
X0121934Y0126138D01*
X0124297Y0122941D02*
X0124411Y0122941D01*
X0117000Y0122941D02*
X0116600Y0122941D01*
X0116600Y0124540D02*
X0117000Y0124540D01*
X0117000Y0119744D02*
X0116600Y0119744D01*
X0116600Y0118146D02*
X0117000Y0118146D01*
X0117000Y0116547D02*
X0116600Y0116547D01*
X0112808Y0116547D02*
X0088774Y0116547D01*
X0090908Y0118146D02*
X0110122Y0118146D01*
X0084826Y0116547D02*
X0028774Y0116547D01*
X0030314Y0114949D02*
X0083286Y0114949D01*
X0082150Y0113350D02*
X0031450Y0113350D01*
X0031900Y0111752D02*
X0081700Y0111752D01*
X0081734Y0110153D02*
X0031866Y0110153D01*
X0031204Y0108555D02*
X0082396Y0108555D01*
X0083881Y0106956D02*
X0029719Y0106956D01*
X0029905Y0105358D02*
X0083695Y0105358D01*
X0082319Y0103759D02*
X0031281Y0103759D01*
X0031900Y0102161D02*
X0081700Y0102161D01*
X0081700Y0100562D02*
X0031900Y0100562D01*
X0031373Y0098964D02*
X0081402Y0098964D01*
X0079804Y0097365D02*
X0030128Y0097365D01*
X0029223Y0095767D02*
X0078205Y0095767D01*
X0076607Y0094168D02*
X0031094Y0094168D01*
X0031774Y0092570D02*
X0075008Y0092570D01*
X0073410Y0090971D02*
X0031900Y0090971D01*
X0031543Y0089373D02*
X0071811Y0089373D01*
X0070213Y0087774D02*
X0030537Y0087774D01*
X0028236Y0086176D02*
X0069700Y0086176D01*
X0069700Y0084577D02*
X0030685Y0084577D01*
X0031604Y0082979D02*
X0069700Y0082979D01*
X0069700Y0081380D02*
X0031900Y0081380D01*
X0031712Y0079782D02*
X0069700Y0079782D01*
X0069700Y0078183D02*
X0030945Y0078183D01*
X0028863Y0076584D02*
X0069700Y0076584D01*
X0069700Y0074986D02*
X0030276Y0074986D01*
X0031435Y0073387D02*
X0069700Y0073387D01*
X0069700Y0071789D02*
X0031900Y0071789D01*
X0031881Y0070190D02*
X0069700Y0070190D01*
X0069700Y0068592D02*
X0031219Y0068592D01*
X0029756Y0066993D02*
X0069700Y0066993D01*
X0069700Y0065395D02*
X0029868Y0065395D01*
X0031265Y0063796D02*
X0069700Y0063796D01*
X0069700Y0062198D02*
X0031900Y0062198D01*
X0031900Y0060599D02*
X0069700Y0060599D01*
X0069700Y0059001D02*
X0031389Y0059001D01*
X0030165Y0057402D02*
X0069700Y0057402D01*
X0069700Y0055804D02*
X0029133Y0055804D01*
X0031057Y0054205D02*
X0069700Y0054205D01*
X0069700Y0052607D02*
X0031758Y0052607D01*
X0031900Y0051008D02*
X0069700Y0051008D01*
X0069700Y0049410D02*
X0031558Y0049410D01*
X0030574Y0047811D02*
X0069700Y0047811D01*
X0069700Y0046213D02*
X0028146Y0046213D01*
X0030648Y0044614D02*
X0069700Y0044614D01*
X0069700Y0043016D02*
X0031589Y0043016D01*
X0031900Y0041417D02*
X0069700Y0041417D01*
X0069700Y0039819D02*
X0031727Y0039819D01*
X0030983Y0038220D02*
X0069700Y0038220D01*
X0069700Y0036622D02*
X0028953Y0036622D01*
X0030805Y0035023D02*
X0069700Y0035023D01*
X0069700Y0033425D02*
X0031865Y0033425D01*
X0032277Y0031826D02*
X0069700Y0031826D01*
X0069700Y0030228D02*
X0032207Y0030228D01*
X0031637Y0028629D02*
X0069700Y0028629D01*
X0069700Y0027031D02*
X0030350Y0027031D01*
X0029830Y0025432D02*
X0069700Y0025432D01*
X0069700Y0023834D02*
X0031250Y0023834D01*
X0031900Y0022235D02*
X0069700Y0022235D01*
X0070482Y0020637D02*
X0031900Y0020637D01*
X0031404Y0019038D02*
X0072080Y0019038D01*
X0073679Y0017440D02*
X0030202Y0017440D01*
X0074100Y0043016D02*
X0081591Y0043016D01*
X0082446Y0044614D02*
X0074100Y0044614D01*
X0074100Y0046213D02*
X0084425Y0046213D01*
X0082500Y0047811D02*
X0074100Y0047811D01*
X0074100Y0049410D02*
X0081615Y0049410D01*
X0081300Y0051008D02*
X0074100Y0051008D01*
X0074100Y0052607D02*
X0081458Y0052607D01*
X0082149Y0054205D02*
X0074100Y0054205D01*
X0074100Y0055804D02*
X0083711Y0055804D01*
X0083435Y0057402D02*
X0074100Y0057402D01*
X0074100Y0059001D02*
X0082211Y0059001D01*
X0081700Y0060599D02*
X0074100Y0060599D01*
X0074100Y0062198D02*
X0081700Y0062198D01*
X0082335Y0063796D02*
X0074100Y0063796D01*
X0074100Y0065395D02*
X0083732Y0065395D01*
X0083844Y0066993D02*
X0074100Y0066993D01*
X0074100Y0068592D02*
X0082381Y0068592D01*
X0081719Y0070190D02*
X0074100Y0070190D01*
X0074100Y0071789D02*
X0081700Y0071789D01*
X0082165Y0073387D02*
X0074100Y0073387D01*
X0074100Y0074986D02*
X0083323Y0074986D01*
X0084737Y0076584D02*
X0074100Y0076584D01*
X0074100Y0078183D02*
X0082654Y0078183D01*
X0081888Y0079782D02*
X0074100Y0079782D01*
X0074100Y0081380D02*
X0081700Y0081380D01*
X0081996Y0082979D02*
X0074100Y0082979D01*
X0074100Y0084577D02*
X0082915Y0084577D01*
X0085364Y0086176D02*
X0074837Y0086176D01*
X0076435Y0087774D02*
X0083063Y0087774D01*
X0082057Y0089373D02*
X0078034Y0089373D01*
X0079632Y0090971D02*
X0081700Y0090971D01*
X0081826Y0092570D02*
X0081231Y0092570D01*
X0082692Y0118146D02*
X0030908Y0118146D01*
X0031697Y0119744D02*
X0081903Y0119744D01*
X0081700Y0121343D02*
X0031900Y0121343D01*
X0031620Y0122941D02*
X0081980Y0122941D01*
X0082877Y0124540D02*
X0030723Y0124540D01*
X0024287Y0135729D02*
X0022031Y0135729D01*
X0009493Y0142123D02*
X0006900Y0142123D01*
X0035623Y0180488D02*
X0136700Y0180488D01*
X0136700Y0178889D02*
X0037261Y0178889D01*
X0037923Y0177291D02*
X0136700Y0177291D01*
X0136700Y0175692D02*
X0037950Y0175692D01*
X0037461Y0174094D02*
X0136700Y0174094D01*
X0136700Y0169298D02*
X0122974Y0169298D01*
X0123962Y0167700D02*
X0136700Y0167700D01*
X0136700Y0166101D02*
X0124200Y0166101D01*
X0123839Y0164503D02*
X0136700Y0164503D01*
X0110923Y0162904D02*
X0036634Y0162904D01*
X0037630Y0164503D02*
X0109761Y0164503D01*
X0109400Y0166101D02*
X0037950Y0166101D01*
X0037753Y0167700D02*
X0109638Y0167700D01*
X0110626Y0169298D02*
X0036931Y0169298D01*
X0036523Y0159707D02*
X0111035Y0159707D01*
X0109807Y0158109D02*
X0037584Y0158109D01*
X0037950Y0156510D02*
X0109400Y0156510D01*
X0109592Y0154912D02*
X0037799Y0154912D01*
X0037043Y0153313D02*
X0110514Y0153313D01*
D16*
X0061800Y0036250D03*
M02*
