%
M48
M72
T01C0.01378
T02C0.03543
T03C0.04000
T04C0.12600
%
T01
X61800Y36250
T02
X33050Y156250
X33050Y166250
X33050Y176250
T03
X26800Y21250
X26800Y31250
X26800Y41250
X26800Y51250
X26800Y61250
X26800Y71250
X26800Y81250
X26800Y91250
X26800Y101250
X26800Y111250
X26800Y121250
X26800Y131250
X86800Y131250
X86800Y121250
X86800Y111250
X86800Y101250
X86800Y91250
X86800Y81250
X86800Y71250
X86800Y61250
X86800Y51250
X86800Y41250
X86800Y31250
X86800Y21250
X115800Y41250
X115800Y51250
X115800Y61250
X115800Y71250
X115800Y81250
X115800Y91250
X115800Y101250
X115800Y111250
X115800Y121250
X115800Y131250
X116800Y156250
X116800Y166250
T04
X11800Y16250
X11800Y131250
X131800Y131250
X131800Y16250
M30
