G75*
%MOIN*%
%OFA0B0*%
%FSLAX25Y25*%
%IPPOS*%
%LPD*%
%AMOC8*
5,1,8,0,0,1.08239X$1,22.5*
%
%ADD10C,0.00600*%
%ADD11C,0.00000*%
%ADD12C,0.00300*%
%ADD13C,0.00400*%
%ADD14C,0.01600*%
%ADD15C,0.00800*%
%ADD16C,0.01200*%
%ADD17C,0.00299*%
%ADD18C,0.00500*%
D10*
X0001800Y0006250D02*
X0001800Y0186250D01*
X0141800Y0186250D01*
X0141800Y0006250D01*
X0001800Y0006250D01*
X0110800Y0038750D02*
X0110800Y0043750D01*
X0113300Y0046250D01*
X0110800Y0048750D01*
X0110800Y0053750D01*
X0113300Y0056250D01*
X0110800Y0058750D01*
X0110800Y0063750D01*
X0113300Y0066250D01*
X0110800Y0068750D01*
X0110800Y0073750D01*
X0113300Y0076250D01*
X0110800Y0078750D01*
X0110800Y0083750D01*
X0113300Y0086250D01*
X0110800Y0088750D01*
X0110800Y0093750D01*
X0113300Y0096250D01*
X0110800Y0098750D01*
X0110800Y0103750D01*
X0113300Y0106250D01*
X0110800Y0108750D01*
X0110800Y0113750D01*
X0113300Y0116250D01*
X0110800Y0118750D01*
X0110800Y0123750D01*
X0113300Y0126250D01*
X0110800Y0128750D01*
X0110800Y0133750D01*
X0113300Y0136250D01*
X0118300Y0136250D01*
X0120800Y0133750D01*
X0120800Y0128750D01*
X0118300Y0126250D01*
X0120800Y0123750D01*
X0120800Y0118750D01*
X0118300Y0116250D01*
X0113300Y0116250D01*
X0118300Y0116250D01*
X0120800Y0113750D01*
X0120800Y0108750D01*
X0118300Y0106250D01*
X0120800Y0103750D01*
X0120800Y0098750D01*
X0118300Y0096250D01*
X0113300Y0096250D01*
X0118300Y0096250D01*
X0120800Y0093750D01*
X0120800Y0088750D01*
X0118300Y0086250D01*
X0120800Y0083750D01*
X0120800Y0078750D01*
X0118300Y0076250D01*
X0113300Y0076250D01*
X0118300Y0076250D02*
X0120800Y0073750D01*
X0120800Y0068750D01*
X0118300Y0066250D01*
X0120800Y0063750D01*
X0120800Y0058750D01*
X0118300Y0056250D01*
X0120800Y0053750D01*
X0120800Y0048750D01*
X0118300Y0046250D01*
X0120800Y0043750D01*
X0120800Y0038750D01*
X0118300Y0036250D01*
X0113300Y0036250D01*
X0110800Y0038750D01*
X0113300Y0046250D02*
X0118300Y0046250D01*
X0118300Y0056250D02*
X0113300Y0056250D01*
X0113300Y0066250D02*
X0118300Y0066250D01*
X0118300Y0086250D02*
X0113300Y0086250D01*
X0113300Y0106250D02*
X0118300Y0106250D01*
X0118300Y0126250D02*
X0113300Y0126250D01*
X0114300Y0151250D02*
X0111800Y0153750D01*
X0111800Y0158750D01*
X0114300Y0161250D01*
X0111800Y0163750D01*
X0111800Y0168750D01*
X0114300Y0171250D01*
X0119300Y0171250D01*
X0121800Y0168750D01*
X0121800Y0163750D01*
X0119300Y0161250D01*
X0121800Y0158750D01*
X0121800Y0153750D01*
X0119300Y0151250D01*
X0114300Y0151250D01*
X0114300Y0161250D02*
X0119300Y0161250D01*
D11*
X0125500Y0131250D02*
X0125502Y0131408D01*
X0125508Y0131567D01*
X0125518Y0131725D01*
X0125532Y0131882D01*
X0125550Y0132040D01*
X0125571Y0132196D01*
X0125597Y0132353D01*
X0125627Y0132508D01*
X0125660Y0132663D01*
X0125698Y0132817D01*
X0125739Y0132970D01*
X0125784Y0133121D01*
X0125833Y0133272D01*
X0125886Y0133421D01*
X0125942Y0133569D01*
X0126003Y0133716D01*
X0126066Y0133861D01*
X0126134Y0134004D01*
X0126205Y0134145D01*
X0126279Y0134285D01*
X0126357Y0134423D01*
X0126439Y0134559D01*
X0126524Y0134692D01*
X0126612Y0134824D01*
X0126703Y0134953D01*
X0126798Y0135080D01*
X0126896Y0135204D01*
X0126997Y0135326D01*
X0127101Y0135446D01*
X0127207Y0135563D01*
X0127317Y0135677D01*
X0127430Y0135788D01*
X0127545Y0135896D01*
X0127664Y0136002D01*
X0127784Y0136104D01*
X0127907Y0136204D01*
X0128033Y0136300D01*
X0128161Y0136393D01*
X0128292Y0136483D01*
X0128424Y0136569D01*
X0128559Y0136652D01*
X0128696Y0136732D01*
X0128835Y0136808D01*
X0128975Y0136881D01*
X0129118Y0136950D01*
X0129262Y0137016D01*
X0129407Y0137078D01*
X0129555Y0137136D01*
X0129703Y0137191D01*
X0129853Y0137242D01*
X0130004Y0137289D01*
X0130157Y0137332D01*
X0130310Y0137371D01*
X0130464Y0137407D01*
X0130619Y0137438D01*
X0130775Y0137466D01*
X0130932Y0137490D01*
X0131089Y0137510D01*
X0131247Y0137526D01*
X0131404Y0137538D01*
X0131563Y0137546D01*
X0131721Y0137550D01*
X0131879Y0137550D01*
X0132037Y0137546D01*
X0132196Y0137538D01*
X0132353Y0137526D01*
X0132511Y0137510D01*
X0132668Y0137490D01*
X0132825Y0137466D01*
X0132981Y0137438D01*
X0133136Y0137407D01*
X0133290Y0137371D01*
X0133443Y0137332D01*
X0133596Y0137289D01*
X0133747Y0137242D01*
X0133897Y0137191D01*
X0134045Y0137136D01*
X0134193Y0137078D01*
X0134338Y0137016D01*
X0134482Y0136950D01*
X0134625Y0136881D01*
X0134765Y0136808D01*
X0134904Y0136732D01*
X0135041Y0136652D01*
X0135176Y0136569D01*
X0135308Y0136483D01*
X0135439Y0136393D01*
X0135567Y0136300D01*
X0135693Y0136204D01*
X0135816Y0136104D01*
X0135936Y0136002D01*
X0136055Y0135896D01*
X0136170Y0135788D01*
X0136283Y0135677D01*
X0136393Y0135563D01*
X0136499Y0135446D01*
X0136603Y0135326D01*
X0136704Y0135204D01*
X0136802Y0135080D01*
X0136897Y0134953D01*
X0136988Y0134824D01*
X0137076Y0134692D01*
X0137161Y0134559D01*
X0137243Y0134423D01*
X0137321Y0134285D01*
X0137395Y0134145D01*
X0137466Y0134004D01*
X0137534Y0133861D01*
X0137597Y0133716D01*
X0137658Y0133569D01*
X0137714Y0133421D01*
X0137767Y0133272D01*
X0137816Y0133121D01*
X0137861Y0132970D01*
X0137902Y0132817D01*
X0137940Y0132663D01*
X0137973Y0132508D01*
X0138003Y0132353D01*
X0138029Y0132196D01*
X0138050Y0132040D01*
X0138068Y0131882D01*
X0138082Y0131725D01*
X0138092Y0131567D01*
X0138098Y0131408D01*
X0138100Y0131250D01*
X0138098Y0131092D01*
X0138092Y0130933D01*
X0138082Y0130775D01*
X0138068Y0130618D01*
X0138050Y0130460D01*
X0138029Y0130304D01*
X0138003Y0130147D01*
X0137973Y0129992D01*
X0137940Y0129837D01*
X0137902Y0129683D01*
X0137861Y0129530D01*
X0137816Y0129379D01*
X0137767Y0129228D01*
X0137714Y0129079D01*
X0137658Y0128931D01*
X0137597Y0128784D01*
X0137534Y0128639D01*
X0137466Y0128496D01*
X0137395Y0128355D01*
X0137321Y0128215D01*
X0137243Y0128077D01*
X0137161Y0127941D01*
X0137076Y0127808D01*
X0136988Y0127676D01*
X0136897Y0127547D01*
X0136802Y0127420D01*
X0136704Y0127296D01*
X0136603Y0127174D01*
X0136499Y0127054D01*
X0136393Y0126937D01*
X0136283Y0126823D01*
X0136170Y0126712D01*
X0136055Y0126604D01*
X0135936Y0126498D01*
X0135816Y0126396D01*
X0135693Y0126296D01*
X0135567Y0126200D01*
X0135439Y0126107D01*
X0135308Y0126017D01*
X0135176Y0125931D01*
X0135041Y0125848D01*
X0134904Y0125768D01*
X0134765Y0125692D01*
X0134625Y0125619D01*
X0134482Y0125550D01*
X0134338Y0125484D01*
X0134193Y0125422D01*
X0134045Y0125364D01*
X0133897Y0125309D01*
X0133747Y0125258D01*
X0133596Y0125211D01*
X0133443Y0125168D01*
X0133290Y0125129D01*
X0133136Y0125093D01*
X0132981Y0125062D01*
X0132825Y0125034D01*
X0132668Y0125010D01*
X0132511Y0124990D01*
X0132353Y0124974D01*
X0132196Y0124962D01*
X0132037Y0124954D01*
X0131879Y0124950D01*
X0131721Y0124950D01*
X0131563Y0124954D01*
X0131404Y0124962D01*
X0131247Y0124974D01*
X0131089Y0124990D01*
X0130932Y0125010D01*
X0130775Y0125034D01*
X0130619Y0125062D01*
X0130464Y0125093D01*
X0130310Y0125129D01*
X0130157Y0125168D01*
X0130004Y0125211D01*
X0129853Y0125258D01*
X0129703Y0125309D01*
X0129555Y0125364D01*
X0129407Y0125422D01*
X0129262Y0125484D01*
X0129118Y0125550D01*
X0128975Y0125619D01*
X0128835Y0125692D01*
X0128696Y0125768D01*
X0128559Y0125848D01*
X0128424Y0125931D01*
X0128292Y0126017D01*
X0128161Y0126107D01*
X0128033Y0126200D01*
X0127907Y0126296D01*
X0127784Y0126396D01*
X0127664Y0126498D01*
X0127545Y0126604D01*
X0127430Y0126712D01*
X0127317Y0126823D01*
X0127207Y0126937D01*
X0127101Y0127054D01*
X0126997Y0127174D01*
X0126896Y0127296D01*
X0126798Y0127420D01*
X0126703Y0127547D01*
X0126612Y0127676D01*
X0126524Y0127808D01*
X0126439Y0127941D01*
X0126357Y0128077D01*
X0126279Y0128215D01*
X0126205Y0128355D01*
X0126134Y0128496D01*
X0126066Y0128639D01*
X0126003Y0128784D01*
X0125942Y0128931D01*
X0125886Y0129079D01*
X0125833Y0129228D01*
X0125784Y0129379D01*
X0125739Y0129530D01*
X0125698Y0129683D01*
X0125660Y0129837D01*
X0125627Y0129992D01*
X0125597Y0130147D01*
X0125571Y0130304D01*
X0125550Y0130460D01*
X0125532Y0130618D01*
X0125518Y0130775D01*
X0125508Y0130933D01*
X0125502Y0131092D01*
X0125500Y0131250D01*
X0125500Y0016250D02*
X0125502Y0016408D01*
X0125508Y0016567D01*
X0125518Y0016725D01*
X0125532Y0016882D01*
X0125550Y0017040D01*
X0125571Y0017196D01*
X0125597Y0017353D01*
X0125627Y0017508D01*
X0125660Y0017663D01*
X0125698Y0017817D01*
X0125739Y0017970D01*
X0125784Y0018121D01*
X0125833Y0018272D01*
X0125886Y0018421D01*
X0125942Y0018569D01*
X0126003Y0018716D01*
X0126066Y0018861D01*
X0126134Y0019004D01*
X0126205Y0019145D01*
X0126279Y0019285D01*
X0126357Y0019423D01*
X0126439Y0019559D01*
X0126524Y0019692D01*
X0126612Y0019824D01*
X0126703Y0019953D01*
X0126798Y0020080D01*
X0126896Y0020204D01*
X0126997Y0020326D01*
X0127101Y0020446D01*
X0127207Y0020563D01*
X0127317Y0020677D01*
X0127430Y0020788D01*
X0127545Y0020896D01*
X0127664Y0021002D01*
X0127784Y0021104D01*
X0127907Y0021204D01*
X0128033Y0021300D01*
X0128161Y0021393D01*
X0128292Y0021483D01*
X0128424Y0021569D01*
X0128559Y0021652D01*
X0128696Y0021732D01*
X0128835Y0021808D01*
X0128975Y0021881D01*
X0129118Y0021950D01*
X0129262Y0022016D01*
X0129407Y0022078D01*
X0129555Y0022136D01*
X0129703Y0022191D01*
X0129853Y0022242D01*
X0130004Y0022289D01*
X0130157Y0022332D01*
X0130310Y0022371D01*
X0130464Y0022407D01*
X0130619Y0022438D01*
X0130775Y0022466D01*
X0130932Y0022490D01*
X0131089Y0022510D01*
X0131247Y0022526D01*
X0131404Y0022538D01*
X0131563Y0022546D01*
X0131721Y0022550D01*
X0131879Y0022550D01*
X0132037Y0022546D01*
X0132196Y0022538D01*
X0132353Y0022526D01*
X0132511Y0022510D01*
X0132668Y0022490D01*
X0132825Y0022466D01*
X0132981Y0022438D01*
X0133136Y0022407D01*
X0133290Y0022371D01*
X0133443Y0022332D01*
X0133596Y0022289D01*
X0133747Y0022242D01*
X0133897Y0022191D01*
X0134045Y0022136D01*
X0134193Y0022078D01*
X0134338Y0022016D01*
X0134482Y0021950D01*
X0134625Y0021881D01*
X0134765Y0021808D01*
X0134904Y0021732D01*
X0135041Y0021652D01*
X0135176Y0021569D01*
X0135308Y0021483D01*
X0135439Y0021393D01*
X0135567Y0021300D01*
X0135693Y0021204D01*
X0135816Y0021104D01*
X0135936Y0021002D01*
X0136055Y0020896D01*
X0136170Y0020788D01*
X0136283Y0020677D01*
X0136393Y0020563D01*
X0136499Y0020446D01*
X0136603Y0020326D01*
X0136704Y0020204D01*
X0136802Y0020080D01*
X0136897Y0019953D01*
X0136988Y0019824D01*
X0137076Y0019692D01*
X0137161Y0019559D01*
X0137243Y0019423D01*
X0137321Y0019285D01*
X0137395Y0019145D01*
X0137466Y0019004D01*
X0137534Y0018861D01*
X0137597Y0018716D01*
X0137658Y0018569D01*
X0137714Y0018421D01*
X0137767Y0018272D01*
X0137816Y0018121D01*
X0137861Y0017970D01*
X0137902Y0017817D01*
X0137940Y0017663D01*
X0137973Y0017508D01*
X0138003Y0017353D01*
X0138029Y0017196D01*
X0138050Y0017040D01*
X0138068Y0016882D01*
X0138082Y0016725D01*
X0138092Y0016567D01*
X0138098Y0016408D01*
X0138100Y0016250D01*
X0138098Y0016092D01*
X0138092Y0015933D01*
X0138082Y0015775D01*
X0138068Y0015618D01*
X0138050Y0015460D01*
X0138029Y0015304D01*
X0138003Y0015147D01*
X0137973Y0014992D01*
X0137940Y0014837D01*
X0137902Y0014683D01*
X0137861Y0014530D01*
X0137816Y0014379D01*
X0137767Y0014228D01*
X0137714Y0014079D01*
X0137658Y0013931D01*
X0137597Y0013784D01*
X0137534Y0013639D01*
X0137466Y0013496D01*
X0137395Y0013355D01*
X0137321Y0013215D01*
X0137243Y0013077D01*
X0137161Y0012941D01*
X0137076Y0012808D01*
X0136988Y0012676D01*
X0136897Y0012547D01*
X0136802Y0012420D01*
X0136704Y0012296D01*
X0136603Y0012174D01*
X0136499Y0012054D01*
X0136393Y0011937D01*
X0136283Y0011823D01*
X0136170Y0011712D01*
X0136055Y0011604D01*
X0135936Y0011498D01*
X0135816Y0011396D01*
X0135693Y0011296D01*
X0135567Y0011200D01*
X0135439Y0011107D01*
X0135308Y0011017D01*
X0135176Y0010931D01*
X0135041Y0010848D01*
X0134904Y0010768D01*
X0134765Y0010692D01*
X0134625Y0010619D01*
X0134482Y0010550D01*
X0134338Y0010484D01*
X0134193Y0010422D01*
X0134045Y0010364D01*
X0133897Y0010309D01*
X0133747Y0010258D01*
X0133596Y0010211D01*
X0133443Y0010168D01*
X0133290Y0010129D01*
X0133136Y0010093D01*
X0132981Y0010062D01*
X0132825Y0010034D01*
X0132668Y0010010D01*
X0132511Y0009990D01*
X0132353Y0009974D01*
X0132196Y0009962D01*
X0132037Y0009954D01*
X0131879Y0009950D01*
X0131721Y0009950D01*
X0131563Y0009954D01*
X0131404Y0009962D01*
X0131247Y0009974D01*
X0131089Y0009990D01*
X0130932Y0010010D01*
X0130775Y0010034D01*
X0130619Y0010062D01*
X0130464Y0010093D01*
X0130310Y0010129D01*
X0130157Y0010168D01*
X0130004Y0010211D01*
X0129853Y0010258D01*
X0129703Y0010309D01*
X0129555Y0010364D01*
X0129407Y0010422D01*
X0129262Y0010484D01*
X0129118Y0010550D01*
X0128975Y0010619D01*
X0128835Y0010692D01*
X0128696Y0010768D01*
X0128559Y0010848D01*
X0128424Y0010931D01*
X0128292Y0011017D01*
X0128161Y0011107D01*
X0128033Y0011200D01*
X0127907Y0011296D01*
X0127784Y0011396D01*
X0127664Y0011498D01*
X0127545Y0011604D01*
X0127430Y0011712D01*
X0127317Y0011823D01*
X0127207Y0011937D01*
X0127101Y0012054D01*
X0126997Y0012174D01*
X0126896Y0012296D01*
X0126798Y0012420D01*
X0126703Y0012547D01*
X0126612Y0012676D01*
X0126524Y0012808D01*
X0126439Y0012941D01*
X0126357Y0013077D01*
X0126279Y0013215D01*
X0126205Y0013355D01*
X0126134Y0013496D01*
X0126066Y0013639D01*
X0126003Y0013784D01*
X0125942Y0013931D01*
X0125886Y0014079D01*
X0125833Y0014228D01*
X0125784Y0014379D01*
X0125739Y0014530D01*
X0125698Y0014683D01*
X0125660Y0014837D01*
X0125627Y0014992D01*
X0125597Y0015147D01*
X0125571Y0015304D01*
X0125550Y0015460D01*
X0125532Y0015618D01*
X0125518Y0015775D01*
X0125508Y0015933D01*
X0125502Y0016092D01*
X0125500Y0016250D01*
X0005500Y0016250D02*
X0005502Y0016408D01*
X0005508Y0016567D01*
X0005518Y0016725D01*
X0005532Y0016882D01*
X0005550Y0017040D01*
X0005571Y0017196D01*
X0005597Y0017353D01*
X0005627Y0017508D01*
X0005660Y0017663D01*
X0005698Y0017817D01*
X0005739Y0017970D01*
X0005784Y0018121D01*
X0005833Y0018272D01*
X0005886Y0018421D01*
X0005942Y0018569D01*
X0006003Y0018716D01*
X0006066Y0018861D01*
X0006134Y0019004D01*
X0006205Y0019145D01*
X0006279Y0019285D01*
X0006357Y0019423D01*
X0006439Y0019559D01*
X0006524Y0019692D01*
X0006612Y0019824D01*
X0006703Y0019953D01*
X0006798Y0020080D01*
X0006896Y0020204D01*
X0006997Y0020326D01*
X0007101Y0020446D01*
X0007207Y0020563D01*
X0007317Y0020677D01*
X0007430Y0020788D01*
X0007545Y0020896D01*
X0007664Y0021002D01*
X0007784Y0021104D01*
X0007907Y0021204D01*
X0008033Y0021300D01*
X0008161Y0021393D01*
X0008292Y0021483D01*
X0008424Y0021569D01*
X0008559Y0021652D01*
X0008696Y0021732D01*
X0008835Y0021808D01*
X0008975Y0021881D01*
X0009118Y0021950D01*
X0009262Y0022016D01*
X0009407Y0022078D01*
X0009555Y0022136D01*
X0009703Y0022191D01*
X0009853Y0022242D01*
X0010004Y0022289D01*
X0010157Y0022332D01*
X0010310Y0022371D01*
X0010464Y0022407D01*
X0010619Y0022438D01*
X0010775Y0022466D01*
X0010932Y0022490D01*
X0011089Y0022510D01*
X0011247Y0022526D01*
X0011404Y0022538D01*
X0011563Y0022546D01*
X0011721Y0022550D01*
X0011879Y0022550D01*
X0012037Y0022546D01*
X0012196Y0022538D01*
X0012353Y0022526D01*
X0012511Y0022510D01*
X0012668Y0022490D01*
X0012825Y0022466D01*
X0012981Y0022438D01*
X0013136Y0022407D01*
X0013290Y0022371D01*
X0013443Y0022332D01*
X0013596Y0022289D01*
X0013747Y0022242D01*
X0013897Y0022191D01*
X0014045Y0022136D01*
X0014193Y0022078D01*
X0014338Y0022016D01*
X0014482Y0021950D01*
X0014625Y0021881D01*
X0014765Y0021808D01*
X0014904Y0021732D01*
X0015041Y0021652D01*
X0015176Y0021569D01*
X0015308Y0021483D01*
X0015439Y0021393D01*
X0015567Y0021300D01*
X0015693Y0021204D01*
X0015816Y0021104D01*
X0015936Y0021002D01*
X0016055Y0020896D01*
X0016170Y0020788D01*
X0016283Y0020677D01*
X0016393Y0020563D01*
X0016499Y0020446D01*
X0016603Y0020326D01*
X0016704Y0020204D01*
X0016802Y0020080D01*
X0016897Y0019953D01*
X0016988Y0019824D01*
X0017076Y0019692D01*
X0017161Y0019559D01*
X0017243Y0019423D01*
X0017321Y0019285D01*
X0017395Y0019145D01*
X0017466Y0019004D01*
X0017534Y0018861D01*
X0017597Y0018716D01*
X0017658Y0018569D01*
X0017714Y0018421D01*
X0017767Y0018272D01*
X0017816Y0018121D01*
X0017861Y0017970D01*
X0017902Y0017817D01*
X0017940Y0017663D01*
X0017973Y0017508D01*
X0018003Y0017353D01*
X0018029Y0017196D01*
X0018050Y0017040D01*
X0018068Y0016882D01*
X0018082Y0016725D01*
X0018092Y0016567D01*
X0018098Y0016408D01*
X0018100Y0016250D01*
X0018098Y0016092D01*
X0018092Y0015933D01*
X0018082Y0015775D01*
X0018068Y0015618D01*
X0018050Y0015460D01*
X0018029Y0015304D01*
X0018003Y0015147D01*
X0017973Y0014992D01*
X0017940Y0014837D01*
X0017902Y0014683D01*
X0017861Y0014530D01*
X0017816Y0014379D01*
X0017767Y0014228D01*
X0017714Y0014079D01*
X0017658Y0013931D01*
X0017597Y0013784D01*
X0017534Y0013639D01*
X0017466Y0013496D01*
X0017395Y0013355D01*
X0017321Y0013215D01*
X0017243Y0013077D01*
X0017161Y0012941D01*
X0017076Y0012808D01*
X0016988Y0012676D01*
X0016897Y0012547D01*
X0016802Y0012420D01*
X0016704Y0012296D01*
X0016603Y0012174D01*
X0016499Y0012054D01*
X0016393Y0011937D01*
X0016283Y0011823D01*
X0016170Y0011712D01*
X0016055Y0011604D01*
X0015936Y0011498D01*
X0015816Y0011396D01*
X0015693Y0011296D01*
X0015567Y0011200D01*
X0015439Y0011107D01*
X0015308Y0011017D01*
X0015176Y0010931D01*
X0015041Y0010848D01*
X0014904Y0010768D01*
X0014765Y0010692D01*
X0014625Y0010619D01*
X0014482Y0010550D01*
X0014338Y0010484D01*
X0014193Y0010422D01*
X0014045Y0010364D01*
X0013897Y0010309D01*
X0013747Y0010258D01*
X0013596Y0010211D01*
X0013443Y0010168D01*
X0013290Y0010129D01*
X0013136Y0010093D01*
X0012981Y0010062D01*
X0012825Y0010034D01*
X0012668Y0010010D01*
X0012511Y0009990D01*
X0012353Y0009974D01*
X0012196Y0009962D01*
X0012037Y0009954D01*
X0011879Y0009950D01*
X0011721Y0009950D01*
X0011563Y0009954D01*
X0011404Y0009962D01*
X0011247Y0009974D01*
X0011089Y0009990D01*
X0010932Y0010010D01*
X0010775Y0010034D01*
X0010619Y0010062D01*
X0010464Y0010093D01*
X0010310Y0010129D01*
X0010157Y0010168D01*
X0010004Y0010211D01*
X0009853Y0010258D01*
X0009703Y0010309D01*
X0009555Y0010364D01*
X0009407Y0010422D01*
X0009262Y0010484D01*
X0009118Y0010550D01*
X0008975Y0010619D01*
X0008835Y0010692D01*
X0008696Y0010768D01*
X0008559Y0010848D01*
X0008424Y0010931D01*
X0008292Y0011017D01*
X0008161Y0011107D01*
X0008033Y0011200D01*
X0007907Y0011296D01*
X0007784Y0011396D01*
X0007664Y0011498D01*
X0007545Y0011604D01*
X0007430Y0011712D01*
X0007317Y0011823D01*
X0007207Y0011937D01*
X0007101Y0012054D01*
X0006997Y0012174D01*
X0006896Y0012296D01*
X0006798Y0012420D01*
X0006703Y0012547D01*
X0006612Y0012676D01*
X0006524Y0012808D01*
X0006439Y0012941D01*
X0006357Y0013077D01*
X0006279Y0013215D01*
X0006205Y0013355D01*
X0006134Y0013496D01*
X0006066Y0013639D01*
X0006003Y0013784D01*
X0005942Y0013931D01*
X0005886Y0014079D01*
X0005833Y0014228D01*
X0005784Y0014379D01*
X0005739Y0014530D01*
X0005698Y0014683D01*
X0005660Y0014837D01*
X0005627Y0014992D01*
X0005597Y0015147D01*
X0005571Y0015304D01*
X0005550Y0015460D01*
X0005532Y0015618D01*
X0005518Y0015775D01*
X0005508Y0015933D01*
X0005502Y0016092D01*
X0005500Y0016250D01*
X0005500Y0131250D02*
X0005502Y0131408D01*
X0005508Y0131567D01*
X0005518Y0131725D01*
X0005532Y0131882D01*
X0005550Y0132040D01*
X0005571Y0132196D01*
X0005597Y0132353D01*
X0005627Y0132508D01*
X0005660Y0132663D01*
X0005698Y0132817D01*
X0005739Y0132970D01*
X0005784Y0133121D01*
X0005833Y0133272D01*
X0005886Y0133421D01*
X0005942Y0133569D01*
X0006003Y0133716D01*
X0006066Y0133861D01*
X0006134Y0134004D01*
X0006205Y0134145D01*
X0006279Y0134285D01*
X0006357Y0134423D01*
X0006439Y0134559D01*
X0006524Y0134692D01*
X0006612Y0134824D01*
X0006703Y0134953D01*
X0006798Y0135080D01*
X0006896Y0135204D01*
X0006997Y0135326D01*
X0007101Y0135446D01*
X0007207Y0135563D01*
X0007317Y0135677D01*
X0007430Y0135788D01*
X0007545Y0135896D01*
X0007664Y0136002D01*
X0007784Y0136104D01*
X0007907Y0136204D01*
X0008033Y0136300D01*
X0008161Y0136393D01*
X0008292Y0136483D01*
X0008424Y0136569D01*
X0008559Y0136652D01*
X0008696Y0136732D01*
X0008835Y0136808D01*
X0008975Y0136881D01*
X0009118Y0136950D01*
X0009262Y0137016D01*
X0009407Y0137078D01*
X0009555Y0137136D01*
X0009703Y0137191D01*
X0009853Y0137242D01*
X0010004Y0137289D01*
X0010157Y0137332D01*
X0010310Y0137371D01*
X0010464Y0137407D01*
X0010619Y0137438D01*
X0010775Y0137466D01*
X0010932Y0137490D01*
X0011089Y0137510D01*
X0011247Y0137526D01*
X0011404Y0137538D01*
X0011563Y0137546D01*
X0011721Y0137550D01*
X0011879Y0137550D01*
X0012037Y0137546D01*
X0012196Y0137538D01*
X0012353Y0137526D01*
X0012511Y0137510D01*
X0012668Y0137490D01*
X0012825Y0137466D01*
X0012981Y0137438D01*
X0013136Y0137407D01*
X0013290Y0137371D01*
X0013443Y0137332D01*
X0013596Y0137289D01*
X0013747Y0137242D01*
X0013897Y0137191D01*
X0014045Y0137136D01*
X0014193Y0137078D01*
X0014338Y0137016D01*
X0014482Y0136950D01*
X0014625Y0136881D01*
X0014765Y0136808D01*
X0014904Y0136732D01*
X0015041Y0136652D01*
X0015176Y0136569D01*
X0015308Y0136483D01*
X0015439Y0136393D01*
X0015567Y0136300D01*
X0015693Y0136204D01*
X0015816Y0136104D01*
X0015936Y0136002D01*
X0016055Y0135896D01*
X0016170Y0135788D01*
X0016283Y0135677D01*
X0016393Y0135563D01*
X0016499Y0135446D01*
X0016603Y0135326D01*
X0016704Y0135204D01*
X0016802Y0135080D01*
X0016897Y0134953D01*
X0016988Y0134824D01*
X0017076Y0134692D01*
X0017161Y0134559D01*
X0017243Y0134423D01*
X0017321Y0134285D01*
X0017395Y0134145D01*
X0017466Y0134004D01*
X0017534Y0133861D01*
X0017597Y0133716D01*
X0017658Y0133569D01*
X0017714Y0133421D01*
X0017767Y0133272D01*
X0017816Y0133121D01*
X0017861Y0132970D01*
X0017902Y0132817D01*
X0017940Y0132663D01*
X0017973Y0132508D01*
X0018003Y0132353D01*
X0018029Y0132196D01*
X0018050Y0132040D01*
X0018068Y0131882D01*
X0018082Y0131725D01*
X0018092Y0131567D01*
X0018098Y0131408D01*
X0018100Y0131250D01*
X0018098Y0131092D01*
X0018092Y0130933D01*
X0018082Y0130775D01*
X0018068Y0130618D01*
X0018050Y0130460D01*
X0018029Y0130304D01*
X0018003Y0130147D01*
X0017973Y0129992D01*
X0017940Y0129837D01*
X0017902Y0129683D01*
X0017861Y0129530D01*
X0017816Y0129379D01*
X0017767Y0129228D01*
X0017714Y0129079D01*
X0017658Y0128931D01*
X0017597Y0128784D01*
X0017534Y0128639D01*
X0017466Y0128496D01*
X0017395Y0128355D01*
X0017321Y0128215D01*
X0017243Y0128077D01*
X0017161Y0127941D01*
X0017076Y0127808D01*
X0016988Y0127676D01*
X0016897Y0127547D01*
X0016802Y0127420D01*
X0016704Y0127296D01*
X0016603Y0127174D01*
X0016499Y0127054D01*
X0016393Y0126937D01*
X0016283Y0126823D01*
X0016170Y0126712D01*
X0016055Y0126604D01*
X0015936Y0126498D01*
X0015816Y0126396D01*
X0015693Y0126296D01*
X0015567Y0126200D01*
X0015439Y0126107D01*
X0015308Y0126017D01*
X0015176Y0125931D01*
X0015041Y0125848D01*
X0014904Y0125768D01*
X0014765Y0125692D01*
X0014625Y0125619D01*
X0014482Y0125550D01*
X0014338Y0125484D01*
X0014193Y0125422D01*
X0014045Y0125364D01*
X0013897Y0125309D01*
X0013747Y0125258D01*
X0013596Y0125211D01*
X0013443Y0125168D01*
X0013290Y0125129D01*
X0013136Y0125093D01*
X0012981Y0125062D01*
X0012825Y0125034D01*
X0012668Y0125010D01*
X0012511Y0124990D01*
X0012353Y0124974D01*
X0012196Y0124962D01*
X0012037Y0124954D01*
X0011879Y0124950D01*
X0011721Y0124950D01*
X0011563Y0124954D01*
X0011404Y0124962D01*
X0011247Y0124974D01*
X0011089Y0124990D01*
X0010932Y0125010D01*
X0010775Y0125034D01*
X0010619Y0125062D01*
X0010464Y0125093D01*
X0010310Y0125129D01*
X0010157Y0125168D01*
X0010004Y0125211D01*
X0009853Y0125258D01*
X0009703Y0125309D01*
X0009555Y0125364D01*
X0009407Y0125422D01*
X0009262Y0125484D01*
X0009118Y0125550D01*
X0008975Y0125619D01*
X0008835Y0125692D01*
X0008696Y0125768D01*
X0008559Y0125848D01*
X0008424Y0125931D01*
X0008292Y0126017D01*
X0008161Y0126107D01*
X0008033Y0126200D01*
X0007907Y0126296D01*
X0007784Y0126396D01*
X0007664Y0126498D01*
X0007545Y0126604D01*
X0007430Y0126712D01*
X0007317Y0126823D01*
X0007207Y0126937D01*
X0007101Y0127054D01*
X0006997Y0127174D01*
X0006896Y0127296D01*
X0006798Y0127420D01*
X0006703Y0127547D01*
X0006612Y0127676D01*
X0006524Y0127808D01*
X0006439Y0127941D01*
X0006357Y0128077D01*
X0006279Y0128215D01*
X0006205Y0128355D01*
X0006134Y0128496D01*
X0006066Y0128639D01*
X0006003Y0128784D01*
X0005942Y0128931D01*
X0005886Y0129079D01*
X0005833Y0129228D01*
X0005784Y0129379D01*
X0005739Y0129530D01*
X0005698Y0129683D01*
X0005660Y0129837D01*
X0005627Y0129992D01*
X0005597Y0130147D01*
X0005571Y0130304D01*
X0005550Y0130460D01*
X0005532Y0130618D01*
X0005518Y0130775D01*
X0005508Y0130933D01*
X0005502Y0131092D01*
X0005500Y0131250D01*
D12*
X0016947Y0151400D02*
X0016947Y0153869D01*
X0018181Y0155700D02*
X0018181Y0156935D01*
X0018798Y0157552D01*
X0020650Y0157552D01*
X0020650Y0155700D01*
X0020033Y0155083D01*
X0019416Y0155700D01*
X0019416Y0157552D01*
X0019416Y0158766D02*
X0018181Y0160618D01*
X0018798Y0161836D02*
X0018181Y0162453D01*
X0018181Y0163687D01*
X0018798Y0164304D01*
X0019416Y0164304D01*
X0019416Y0161836D01*
X0020033Y0161836D02*
X0018798Y0161836D01*
X0020033Y0161836D02*
X0020650Y0162453D01*
X0020650Y0163687D01*
X0020650Y0160618D02*
X0019416Y0158766D01*
X0020650Y0158766D02*
X0016947Y0158766D01*
X0018798Y0152634D02*
X0018798Y0151400D01*
X0016947Y0151400D02*
X0020650Y0151400D01*
X0022947Y0151400D02*
X0022947Y0153869D01*
X0022947Y0155083D02*
X0026650Y0155083D01*
X0024798Y0155083D02*
X0024181Y0155700D01*
X0024181Y0156935D01*
X0024798Y0157552D01*
X0026650Y0157552D01*
X0026033Y0158766D02*
X0024798Y0158766D01*
X0024181Y0159383D01*
X0024181Y0160618D01*
X0024798Y0161235D01*
X0025416Y0161235D01*
X0025416Y0158766D01*
X0026033Y0158766D02*
X0026650Y0159383D01*
X0026650Y0160618D01*
X0026650Y0162449D02*
X0024181Y0162449D01*
X0025416Y0162449D02*
X0024181Y0163684D01*
X0024181Y0164301D01*
X0024181Y0165519D02*
X0024181Y0166136D01*
X0024798Y0166753D01*
X0024181Y0167370D01*
X0024798Y0167987D01*
X0026650Y0167987D01*
X0026650Y0169202D02*
X0026650Y0170436D01*
X0026650Y0169819D02*
X0024181Y0169819D01*
X0024181Y0169202D01*
X0022947Y0169819D02*
X0022330Y0169819D01*
X0021150Y0170369D02*
X0021150Y0167900D01*
X0021150Y0169134D02*
X0017447Y0169134D01*
X0018681Y0167900D01*
X0018064Y0171583D02*
X0017447Y0172200D01*
X0017447Y0173435D01*
X0018064Y0174052D01*
X0020533Y0171583D01*
X0021150Y0172200D01*
X0021150Y0173435D01*
X0020533Y0174052D01*
X0018064Y0174052D01*
X0018064Y0175266D02*
X0017447Y0175883D01*
X0017447Y0177118D01*
X0018064Y0177735D01*
X0020533Y0175266D01*
X0021150Y0175883D01*
X0021150Y0177118D01*
X0020533Y0177735D01*
X0018064Y0177735D01*
X0017447Y0178949D02*
X0021150Y0178949D01*
X0019916Y0178949D02*
X0018681Y0180801D01*
X0019916Y0178949D02*
X0021150Y0180801D01*
X0024181Y0181479D02*
X0026650Y0181479D01*
X0025416Y0181479D02*
X0024181Y0182713D01*
X0024181Y0183331D01*
X0024798Y0180265D02*
X0024181Y0179647D01*
X0024181Y0178413D01*
X0024798Y0177796D01*
X0026033Y0177796D01*
X0026650Y0178413D01*
X0026650Y0179647D01*
X0026033Y0180265D01*
X0024798Y0180265D01*
X0024181Y0176575D02*
X0024181Y0175340D01*
X0023564Y0175958D02*
X0026033Y0175958D01*
X0026650Y0176575D01*
X0026033Y0174126D02*
X0025416Y0173509D01*
X0025416Y0172274D01*
X0024798Y0171657D01*
X0024181Y0172274D01*
X0024181Y0174126D01*
X0026033Y0174126D02*
X0026650Y0173509D01*
X0026650Y0171657D01*
X0026650Y0166753D02*
X0024798Y0166753D01*
X0024181Y0165519D02*
X0026650Y0165519D01*
X0020533Y0171583D02*
X0018064Y0171583D01*
X0018064Y0175266D02*
X0020533Y0175266D01*
X0022947Y0152634D02*
X0026650Y0152634D01*
X0046450Y0150103D02*
X0046450Y0146400D01*
X0046450Y0148252D02*
X0047067Y0148869D01*
X0048302Y0148869D01*
X0048919Y0148252D01*
X0048919Y0146400D01*
X0050750Y0147017D02*
X0051368Y0146400D01*
X0050750Y0147017D02*
X0050750Y0149486D01*
X0050133Y0148869D02*
X0051368Y0148869D01*
X0052589Y0148869D02*
X0053823Y0148869D01*
X0053206Y0149486D02*
X0053206Y0147017D01*
X0053823Y0146400D01*
X0055044Y0146400D02*
X0056896Y0146400D01*
X0057513Y0147017D01*
X0057513Y0148252D01*
X0056896Y0148869D01*
X0055044Y0148869D01*
X0055044Y0145166D01*
X0054433Y0144720D02*
X0054433Y0144103D01*
X0054433Y0142869D02*
X0054433Y0140400D01*
X0053816Y0140400D02*
X0055051Y0140400D01*
X0056272Y0140400D02*
X0056272Y0144103D01*
X0058123Y0142869D02*
X0056272Y0141634D01*
X0058123Y0140400D01*
X0059341Y0140400D02*
X0060575Y0140400D01*
X0059958Y0140400D02*
X0059958Y0142869D01*
X0059341Y0142869D01*
X0059958Y0144103D02*
X0059958Y0144720D01*
X0060569Y0146400D02*
X0063037Y0150103D01*
X0066721Y0150103D02*
X0064252Y0146400D01*
X0064265Y0144103D02*
X0061796Y0140400D01*
X0065480Y0141017D02*
X0066097Y0140400D01*
X0067331Y0140400D01*
X0067948Y0141017D01*
X0067948Y0141634D01*
X0067331Y0142252D01*
X0066097Y0142252D01*
X0065480Y0142869D01*
X0065480Y0143486D01*
X0066097Y0144103D01*
X0067331Y0144103D01*
X0067948Y0143486D01*
X0069163Y0142869D02*
X0070397Y0142869D01*
X0069780Y0143486D02*
X0069780Y0141017D01*
X0070397Y0140400D01*
X0071618Y0141017D02*
X0071618Y0142252D01*
X0072235Y0142869D01*
X0073470Y0142869D01*
X0074087Y0142252D01*
X0074087Y0141634D01*
X0071618Y0141634D01*
X0071618Y0141017D02*
X0072235Y0140400D01*
X0073470Y0140400D01*
X0075301Y0140400D02*
X0077153Y0140400D01*
X0077770Y0141017D01*
X0077770Y0142252D01*
X0077153Y0142869D01*
X0075301Y0142869D01*
X0075301Y0139166D01*
X0078984Y0139166D02*
X0078984Y0142869D01*
X0080836Y0142869D01*
X0081453Y0142252D01*
X0081453Y0141017D01*
X0080836Y0140400D01*
X0078984Y0140400D01*
X0082668Y0141017D02*
X0082668Y0142252D01*
X0083285Y0142869D01*
X0084519Y0142869D01*
X0085136Y0142252D01*
X0085136Y0141634D01*
X0082668Y0141634D01*
X0082668Y0141017D02*
X0083285Y0140400D01*
X0084519Y0140400D01*
X0086351Y0140400D02*
X0086351Y0142869D01*
X0087585Y0142869D02*
X0088202Y0142869D01*
X0087585Y0142869D02*
X0086351Y0141634D01*
X0089420Y0140400D02*
X0091889Y0142869D01*
X0091889Y0143486D01*
X0091272Y0144103D01*
X0090037Y0144103D01*
X0089420Y0143486D01*
X0089423Y0146400D02*
X0088806Y0146400D01*
X0088806Y0147017D01*
X0089423Y0147017D01*
X0089423Y0146400D01*
X0090648Y0147017D02*
X0091265Y0146400D01*
X0092499Y0146400D01*
X0093116Y0147017D01*
X0093116Y0148252D01*
X0092499Y0148869D01*
X0091265Y0148869D01*
X0090648Y0148252D01*
X0090648Y0147017D01*
X0094331Y0146400D02*
X0094331Y0148869D01*
X0095565Y0148869D02*
X0094331Y0147634D01*
X0095565Y0148869D02*
X0096182Y0148869D01*
X0097400Y0148252D02*
X0097400Y0147017D01*
X0098017Y0146400D01*
X0099869Y0146400D01*
X0099869Y0145783D02*
X0099869Y0148869D01*
X0098017Y0148869D01*
X0097400Y0148252D01*
X0098635Y0145166D02*
X0099252Y0145166D01*
X0099869Y0145783D01*
X0101087Y0142869D02*
X0100469Y0142252D01*
X0101087Y0141634D01*
X0102321Y0141634D01*
X0102938Y0141017D01*
X0102321Y0140400D01*
X0100469Y0140400D01*
X0099255Y0140400D02*
X0097403Y0140400D01*
X0096786Y0141017D01*
X0097403Y0141634D01*
X0099255Y0141634D01*
X0099255Y0142252D02*
X0099255Y0140400D01*
X0099255Y0142252D02*
X0098638Y0142869D01*
X0097403Y0142869D01*
X0095572Y0140400D02*
X0093103Y0140400D01*
X0093103Y0144103D01*
X0091889Y0140400D02*
X0089420Y0140400D01*
X0085123Y0145166D02*
X0085123Y0148869D01*
X0086975Y0148869D01*
X0087592Y0148252D01*
X0087592Y0147017D01*
X0086975Y0146400D01*
X0085123Y0146400D01*
X0083909Y0146400D02*
X0083909Y0148252D01*
X0083291Y0148869D01*
X0082057Y0148869D01*
X0082057Y0147634D02*
X0081440Y0147017D01*
X0082057Y0146400D01*
X0083909Y0146400D01*
X0083909Y0147634D02*
X0082057Y0147634D01*
X0080222Y0148869D02*
X0079605Y0148869D01*
X0078371Y0147634D01*
X0078371Y0146400D02*
X0078371Y0148869D01*
X0077156Y0148252D02*
X0077156Y0147017D01*
X0076539Y0146400D01*
X0074687Y0146400D01*
X0074687Y0145166D02*
X0074687Y0148869D01*
X0076539Y0148869D01*
X0077156Y0148252D01*
X0073473Y0148252D02*
X0073473Y0147634D01*
X0071004Y0147634D01*
X0071004Y0147017D02*
X0071004Y0148252D01*
X0071621Y0148869D01*
X0072856Y0148869D01*
X0073473Y0148252D01*
X0072856Y0146400D02*
X0071621Y0146400D01*
X0071004Y0147017D01*
X0069787Y0148869D02*
X0069169Y0148869D01*
X0067935Y0147634D01*
X0067935Y0146400D02*
X0067935Y0148869D01*
X0059344Y0148869D02*
X0059344Y0148252D01*
X0058727Y0148252D01*
X0058727Y0148869D01*
X0059344Y0148869D01*
X0059344Y0147017D02*
X0058727Y0147017D01*
X0058727Y0146400D01*
X0059344Y0146400D01*
X0059344Y0147017D01*
X0054433Y0142869D02*
X0053816Y0142869D01*
X0052602Y0142869D02*
X0052602Y0141017D01*
X0051985Y0140400D01*
X0051368Y0141017D01*
X0050750Y0140400D01*
X0050133Y0141017D01*
X0050133Y0142869D01*
X0048919Y0144103D02*
X0046450Y0140400D01*
X0069181Y0108759D02*
X0069181Y0106908D01*
X0069798Y0106291D01*
X0070416Y0106908D01*
X0070416Y0108142D01*
X0071033Y0108759D01*
X0071650Y0108142D01*
X0071650Y0106291D01*
X0071650Y0105076D02*
X0069798Y0105076D01*
X0069181Y0104459D01*
X0069798Y0103842D01*
X0071650Y0103842D01*
X0071650Y0102607D02*
X0069181Y0102607D01*
X0069181Y0103225D01*
X0069798Y0103842D01*
X0069798Y0101393D02*
X0070416Y0101393D01*
X0070416Y0098924D01*
X0071033Y0098924D02*
X0069798Y0098924D01*
X0069181Y0099541D01*
X0069181Y0100776D01*
X0069798Y0101393D01*
X0071650Y0100776D02*
X0071650Y0099541D01*
X0071033Y0098924D01*
X0071650Y0097703D02*
X0071033Y0097086D01*
X0068564Y0097086D01*
X0069181Y0096469D02*
X0069181Y0097703D01*
X0069181Y0095254D02*
X0069181Y0093403D01*
X0069798Y0092786D01*
X0070416Y0093403D01*
X0070416Y0094637D01*
X0071033Y0095254D01*
X0071650Y0094637D01*
X0071650Y0092786D01*
X0071650Y0091571D02*
X0071650Y0089720D01*
X0071033Y0089103D01*
X0069181Y0089103D01*
X0068564Y0087888D02*
X0067947Y0087271D01*
X0067947Y0086037D01*
X0068564Y0085419D01*
X0069181Y0085419D01*
X0069798Y0086037D01*
X0069798Y0087271D01*
X0070416Y0087888D01*
X0071033Y0087888D01*
X0071650Y0087271D01*
X0071650Y0086037D01*
X0071033Y0085419D01*
X0071650Y0080522D02*
X0071650Y0078670D01*
X0071033Y0078053D01*
X0069798Y0078053D01*
X0069181Y0078670D01*
X0069181Y0080522D01*
X0072267Y0080522D01*
X0072884Y0079905D01*
X0072884Y0079288D01*
X0071650Y0076839D02*
X0069798Y0076839D01*
X0069181Y0076222D01*
X0069181Y0074370D01*
X0071650Y0074370D01*
X0071650Y0073149D02*
X0071650Y0071915D01*
X0071650Y0072532D02*
X0069181Y0072532D01*
X0069181Y0071915D01*
X0069181Y0070697D02*
X0069181Y0070080D01*
X0070416Y0068845D01*
X0070416Y0067631D02*
X0069798Y0067631D01*
X0069181Y0067014D01*
X0069181Y0065779D01*
X0069798Y0065162D01*
X0071033Y0065162D01*
X0071650Y0065779D01*
X0071650Y0067014D01*
X0070416Y0067631D02*
X0070416Y0065162D01*
X0071650Y0063941D02*
X0071033Y0063324D01*
X0068564Y0063324D01*
X0069181Y0062707D02*
X0069181Y0063941D01*
X0069798Y0061492D02*
X0071650Y0061492D01*
X0069798Y0061492D02*
X0069181Y0060875D01*
X0069181Y0059024D01*
X0071650Y0059024D01*
X0071650Y0057803D02*
X0071650Y0056568D01*
X0071650Y0057185D02*
X0069181Y0057185D01*
X0069181Y0056568D01*
X0068564Y0055354D02*
X0067947Y0054737D01*
X0067947Y0053502D01*
X0068564Y0052885D01*
X0069181Y0052885D01*
X0069798Y0053502D01*
X0069798Y0054737D01*
X0070416Y0055354D01*
X0071033Y0055354D01*
X0071650Y0054737D01*
X0071650Y0053502D01*
X0071033Y0052885D01*
X0067947Y0057185D02*
X0067330Y0057185D01*
X0065650Y0057185D02*
X0065650Y0058420D01*
X0065650Y0057185D02*
X0065033Y0056568D01*
X0063798Y0056568D01*
X0063181Y0057185D01*
X0063181Y0058420D01*
X0063798Y0059037D01*
X0064416Y0059037D01*
X0064416Y0056568D01*
X0063798Y0055354D02*
X0063181Y0054737D01*
X0063798Y0054119D01*
X0065650Y0054119D01*
X0065650Y0052885D02*
X0063181Y0052885D01*
X0063181Y0053502D01*
X0063798Y0054119D01*
X0063798Y0055354D02*
X0065650Y0055354D01*
X0065033Y0051671D02*
X0063798Y0051671D01*
X0063181Y0051053D01*
X0063181Y0049819D01*
X0063798Y0049202D01*
X0065033Y0049202D01*
X0065650Y0049819D01*
X0065650Y0051053D01*
X0065033Y0051671D01*
X0065650Y0047987D02*
X0063798Y0047987D01*
X0063181Y0047370D01*
X0063181Y0046136D01*
X0063798Y0045519D01*
X0061947Y0045519D02*
X0065650Y0045519D01*
X0069181Y0046133D02*
X0071650Y0046133D01*
X0070416Y0046133D02*
X0069181Y0047367D01*
X0069181Y0047984D01*
X0069798Y0044918D02*
X0070416Y0044918D01*
X0070416Y0042449D01*
X0071033Y0042449D02*
X0069798Y0042449D01*
X0069181Y0043067D01*
X0069181Y0044301D01*
X0069798Y0044918D01*
X0071650Y0044301D02*
X0071650Y0043067D01*
X0071033Y0042449D01*
X0071033Y0041235D02*
X0070416Y0040618D01*
X0070416Y0039383D01*
X0069798Y0038766D01*
X0069181Y0039383D01*
X0069181Y0041235D01*
X0071033Y0041235D02*
X0071650Y0040618D01*
X0071650Y0038766D01*
X0071650Y0037552D02*
X0069798Y0037552D01*
X0069181Y0036935D01*
X0069181Y0035700D01*
X0070416Y0035700D02*
X0070416Y0037552D01*
X0071650Y0037552D02*
X0071650Y0035700D01*
X0071033Y0035083D01*
X0070416Y0035700D01*
X0071650Y0033869D02*
X0071650Y0031400D01*
X0067947Y0031400D01*
X0065650Y0031400D02*
X0061947Y0031400D01*
X0061947Y0033869D01*
X0063181Y0035700D02*
X0063798Y0035083D01*
X0065033Y0035083D01*
X0065650Y0035700D01*
X0065650Y0036935D01*
X0065033Y0037552D01*
X0063798Y0037552D01*
X0063181Y0036935D01*
X0063181Y0035700D01*
X0063798Y0032634D02*
X0063798Y0031400D01*
X0063181Y0038766D02*
X0065650Y0038766D01*
X0064416Y0038766D02*
X0063181Y0040001D01*
X0063181Y0040618D01*
X0063798Y0060251D02*
X0063798Y0062720D01*
X0063181Y0063934D02*
X0063181Y0065786D01*
X0063798Y0066403D01*
X0065033Y0066403D01*
X0065650Y0065786D01*
X0065650Y0063934D01*
X0061947Y0063934D01*
X0063181Y0067618D02*
X0065650Y0067618D01*
X0064416Y0067618D02*
X0063181Y0068852D01*
X0063181Y0069469D01*
X0063798Y0070687D02*
X0063181Y0071304D01*
X0063181Y0072538D01*
X0063798Y0073156D01*
X0064416Y0073156D01*
X0064416Y0070687D01*
X0065033Y0070687D02*
X0063798Y0070687D01*
X0065033Y0070687D02*
X0065650Y0071304D01*
X0065650Y0072538D01*
X0067330Y0072532D02*
X0067947Y0072532D01*
X0065650Y0074987D02*
X0065033Y0075604D01*
X0065650Y0076222D01*
X0065033Y0076839D01*
X0063181Y0076839D01*
X0063181Y0074370D02*
X0065033Y0074370D01*
X0065650Y0074987D01*
X0069181Y0068845D02*
X0071650Y0068845D01*
X0072884Y0090337D02*
X0072884Y0090954D01*
X0072267Y0091571D01*
X0069181Y0091571D01*
X0097934Y0120400D02*
X0097450Y0120884D01*
X0097450Y0122819D01*
X0097934Y0123302D01*
X0098901Y0123302D01*
X0099385Y0122819D01*
X0099385Y0121851D02*
X0098417Y0121851D01*
X0099385Y0121851D02*
X0099385Y0120884D01*
X0098901Y0120400D01*
X0097934Y0120400D01*
X0100397Y0120400D02*
X0100397Y0123302D01*
X0102331Y0120400D01*
X0102331Y0123302D01*
X0103343Y0123302D02*
X0104794Y0123302D01*
X0105278Y0122819D01*
X0105278Y0120884D01*
X0104794Y0120400D01*
X0103343Y0120400D01*
X0103343Y0123302D01*
X0102843Y0129900D02*
X0104778Y0131835D01*
X0104778Y0132319D01*
X0104294Y0132802D01*
X0103327Y0132802D01*
X0102843Y0132319D01*
X0100864Y0132802D02*
X0100864Y0129900D01*
X0099897Y0129900D02*
X0101831Y0129900D01*
X0102843Y0129900D02*
X0104778Y0129900D01*
X0105790Y0130867D02*
X0105790Y0132802D01*
X0105790Y0130867D02*
X0106757Y0129900D01*
X0107725Y0130867D01*
X0107725Y0132802D01*
X0107836Y0140400D02*
X0107836Y0142869D01*
X0109070Y0142869D02*
X0109687Y0142869D01*
X0109070Y0142869D02*
X0107836Y0141634D01*
X0106621Y0141634D02*
X0104153Y0141634D01*
X0104153Y0141017D02*
X0104153Y0142252D01*
X0104770Y0142869D01*
X0106004Y0142869D01*
X0106621Y0142252D01*
X0106621Y0141634D01*
X0106004Y0140400D02*
X0104770Y0140400D01*
X0104153Y0141017D01*
X0102938Y0142869D02*
X0101087Y0142869D01*
X0100864Y0132802D02*
X0099897Y0131835D01*
X0098885Y0131351D02*
X0096950Y0131351D01*
X0097917Y0130384D02*
X0097917Y0132319D01*
X0098434Y0112802D02*
X0097950Y0112319D01*
X0097950Y0110384D01*
X0098434Y0109900D01*
X0099401Y0109900D01*
X0099885Y0110384D01*
X0099885Y0111351D01*
X0098917Y0111351D01*
X0099885Y0112319D02*
X0099401Y0112802D01*
X0098434Y0112802D01*
X0100897Y0112802D02*
X0100897Y0109900D01*
X0102831Y0109900D02*
X0100897Y0112802D01*
X0102831Y0112802D02*
X0102831Y0109900D01*
X0103843Y0109900D02*
X0103843Y0112802D01*
X0105294Y0112802D01*
X0105778Y0112319D01*
X0105778Y0110384D01*
X0105294Y0109900D01*
X0103843Y0109900D01*
X0103831Y0102802D02*
X0101897Y0102802D01*
X0102864Y0102802D02*
X0102864Y0099900D01*
X0100885Y0102802D02*
X0098950Y0102802D01*
X0099917Y0102802D02*
X0099917Y0099900D01*
X0104843Y0099900D02*
X0106778Y0099900D01*
X0104843Y0099900D02*
X0104843Y0102802D01*
X0104798Y0092335D02*
X0102330Y0092335D01*
X0102947Y0091121D02*
X0105416Y0088652D01*
X0104798Y0089269D02*
X0106650Y0091121D01*
X0106650Y0092335D02*
X0106033Y0092335D01*
X0106650Y0088652D02*
X0102947Y0088652D01*
X0103564Y0087438D02*
X0102947Y0086820D01*
X0102947Y0085586D01*
X0103564Y0084969D01*
X0104181Y0084969D01*
X0104798Y0085586D01*
X0104798Y0086820D01*
X0105416Y0087438D01*
X0106033Y0087438D01*
X0106650Y0086820D01*
X0106650Y0085586D01*
X0106033Y0084969D01*
X0106650Y0083748D02*
X0106650Y0082513D01*
X0106650Y0083131D02*
X0102947Y0083131D01*
X0102947Y0083748D02*
X0102947Y0082513D01*
X0103564Y0081299D02*
X0102947Y0080682D01*
X0102947Y0078830D01*
X0106650Y0078830D01*
X0105416Y0078830D02*
X0105416Y0080682D01*
X0104798Y0081299D01*
X0103564Y0081299D01*
X0105416Y0080065D02*
X0106650Y0081299D01*
X0106650Y0073933D02*
X0102947Y0073933D01*
X0102947Y0071464D02*
X0106650Y0073933D01*
X0106650Y0071464D02*
X0102947Y0071464D01*
X0102947Y0070250D02*
X0106650Y0070250D01*
X0105416Y0069015D01*
X0106650Y0067781D01*
X0102947Y0067781D01*
X0103564Y0066567D02*
X0102947Y0065949D01*
X0102947Y0064715D01*
X0103564Y0064098D01*
X0106033Y0064098D01*
X0106650Y0064715D01*
X0106650Y0065949D01*
X0106033Y0066567D01*
X0103564Y0066567D01*
X0103564Y0059200D02*
X0102947Y0058583D01*
X0102947Y0056731D01*
X0106650Y0056731D01*
X0105416Y0056731D02*
X0105416Y0058583D01*
X0104798Y0059200D01*
X0103564Y0059200D01*
X0105416Y0057966D02*
X0106650Y0059200D01*
X0106033Y0055517D02*
X0102947Y0055517D01*
X0102947Y0053048D02*
X0106033Y0053048D01*
X0106650Y0053665D01*
X0106650Y0054900D01*
X0106033Y0055517D01*
X0106033Y0051834D02*
X0103564Y0051834D01*
X0102947Y0051217D01*
X0102947Y0049982D01*
X0103564Y0049365D01*
X0106033Y0049365D01*
X0106650Y0049982D01*
X0106650Y0051217D01*
X0106033Y0051834D01*
X0103564Y0048151D02*
X0102947Y0048151D01*
X0103564Y0048151D02*
X0104798Y0046916D01*
X0106650Y0046916D01*
X0104798Y0046916D02*
X0103564Y0045682D01*
X0102947Y0045682D01*
X0102947Y0040784D02*
X0102947Y0038316D01*
X0102947Y0039550D02*
X0106650Y0039550D01*
X0106650Y0037101D02*
X0104181Y0037101D01*
X0102947Y0035867D01*
X0104181Y0034633D01*
X0106650Y0034633D01*
X0104798Y0034633D02*
X0104798Y0037101D01*
X0102947Y0029735D02*
X0102947Y0027266D01*
X0106650Y0027266D01*
X0106650Y0029735D01*
X0104798Y0028501D02*
X0104798Y0027266D01*
X0105416Y0026052D02*
X0104798Y0025435D01*
X0104798Y0024200D01*
X0104181Y0023583D01*
X0103564Y0023583D01*
X0102947Y0024200D01*
X0102947Y0025435D01*
X0103564Y0026052D01*
X0105416Y0026052D02*
X0106033Y0026052D01*
X0106650Y0025435D01*
X0106650Y0024200D01*
X0106033Y0023583D01*
X0106033Y0022369D02*
X0102947Y0022369D01*
X0102947Y0019900D02*
X0106033Y0019900D01*
X0106650Y0020517D01*
X0106650Y0021752D01*
X0106033Y0022369D01*
X0123450Y0041351D02*
X0125385Y0041351D01*
X0126397Y0041351D02*
X0127364Y0041835D01*
X0127848Y0041835D01*
X0128331Y0041351D01*
X0128331Y0040384D01*
X0127848Y0039900D01*
X0126880Y0039900D01*
X0126397Y0040384D01*
X0126397Y0041351D02*
X0126397Y0042802D01*
X0128331Y0042802D01*
X0129343Y0042802D02*
X0129343Y0040867D01*
X0130311Y0039900D01*
X0131278Y0040867D01*
X0131278Y0042802D01*
X0130794Y0049900D02*
X0129343Y0049900D01*
X0129343Y0052802D01*
X0130794Y0052802D01*
X0131278Y0052319D01*
X0131278Y0050384D01*
X0130794Y0049900D01*
X0128331Y0049900D02*
X0128331Y0052802D01*
X0126397Y0052802D02*
X0128331Y0049900D01*
X0126397Y0049900D02*
X0126397Y0052802D01*
X0125385Y0052319D02*
X0124901Y0052802D01*
X0123934Y0052802D01*
X0123450Y0052319D01*
X0123450Y0050384D01*
X0123934Y0049900D01*
X0124901Y0049900D01*
X0125385Y0050384D01*
X0125385Y0051351D01*
X0124417Y0051351D01*
X0124901Y0059900D02*
X0123450Y0059900D01*
X0123450Y0062802D01*
X0124901Y0062802D01*
X0125385Y0062319D01*
X0125385Y0060384D01*
X0124901Y0059900D01*
X0126397Y0059900D02*
X0127364Y0059900D01*
X0126880Y0059900D02*
X0126880Y0062802D01*
X0126397Y0062802D02*
X0127364Y0062802D01*
X0128361Y0062802D02*
X0129812Y0062802D01*
X0130296Y0062319D01*
X0130296Y0061351D01*
X0129812Y0060867D01*
X0128361Y0060867D01*
X0128361Y0059900D02*
X0128361Y0062802D01*
X0129328Y0060867D02*
X0130296Y0059900D01*
X0129343Y0069900D02*
X0129343Y0072802D01*
X0130794Y0072802D01*
X0131278Y0072319D01*
X0131278Y0071351D01*
X0130794Y0070867D01*
X0129343Y0070867D01*
X0128331Y0072802D02*
X0126397Y0072802D01*
X0127364Y0072802D02*
X0127364Y0069900D01*
X0125385Y0070384D02*
X0124901Y0069900D01*
X0123934Y0069900D01*
X0123450Y0070384D01*
X0123934Y0071351D02*
X0123450Y0071835D01*
X0123450Y0072319D01*
X0123934Y0072802D01*
X0124901Y0072802D01*
X0125385Y0072319D01*
X0124901Y0071351D02*
X0125385Y0070867D01*
X0125385Y0070384D01*
X0124901Y0071351D02*
X0123934Y0071351D01*
X0123450Y0079900D02*
X0125385Y0079900D01*
X0126397Y0079900D02*
X0126397Y0082802D01*
X0128331Y0079900D01*
X0128331Y0082802D01*
X0129343Y0081835D02*
X0130311Y0082802D01*
X0131278Y0081835D01*
X0131278Y0079900D01*
X0131278Y0081351D02*
X0129343Y0081351D01*
X0129343Y0081835D02*
X0129343Y0079900D01*
X0125385Y0082802D02*
X0123450Y0082802D01*
X0123450Y0079900D01*
X0123450Y0081351D02*
X0124417Y0081351D01*
X0125397Y0089900D02*
X0127331Y0089900D01*
X0126364Y0089900D02*
X0126364Y0092802D01*
X0125397Y0091835D01*
X0124385Y0091351D02*
X0122450Y0091351D01*
X0123417Y0090384D02*
X0123417Y0092319D01*
X0128343Y0092319D02*
X0128827Y0092802D01*
X0129794Y0092802D01*
X0130278Y0092319D01*
X0130278Y0091835D01*
X0128343Y0089900D01*
X0130278Y0089900D01*
X0131290Y0090867D02*
X0132257Y0089900D01*
X0133225Y0090867D01*
X0133225Y0092802D01*
X0131290Y0092802D02*
X0131290Y0090867D01*
X0124417Y0042319D02*
X0124417Y0040384D01*
X0069511Y0014302D02*
X0067576Y0014302D01*
X0067576Y0011400D01*
X0069511Y0011400D01*
X0067576Y0011400D01*
X0067576Y0014302D01*
X0069511Y0014302D01*
X0068543Y0012851D02*
X0067576Y0012851D01*
X0068543Y0012851D01*
X0066564Y0012851D02*
X0066564Y0013819D01*
X0066080Y0014302D01*
X0064629Y0014302D01*
X0064629Y0011400D01*
X0064629Y0014302D01*
X0066080Y0014302D01*
X0066564Y0013819D01*
X0066564Y0012851D01*
X0066080Y0012367D01*
X0064629Y0012367D01*
X0066080Y0012367D01*
X0066564Y0012851D01*
X0065597Y0012367D02*
X0066564Y0011400D01*
X0065597Y0012367D01*
X0063618Y0011400D02*
X0061683Y0011400D01*
X0061683Y0014302D01*
X0063618Y0014302D01*
X0061683Y0014302D01*
X0061683Y0011400D01*
X0063618Y0011400D01*
X0062650Y0012851D02*
X0061683Y0012851D01*
X0062650Y0012851D01*
X0060671Y0012851D02*
X0058736Y0012851D01*
X0060671Y0012851D01*
X0060671Y0014302D02*
X0060671Y0011400D01*
X0060671Y0014302D01*
X0058736Y0014302D02*
X0058736Y0011400D01*
X0058736Y0014302D01*
X0054778Y0013819D02*
X0054778Y0013335D01*
X0054294Y0012851D01*
X0052843Y0012851D01*
X0054294Y0012851D01*
X0054778Y0012367D01*
X0054778Y0011884D01*
X0054294Y0011400D01*
X0052843Y0011400D01*
X0052843Y0014302D01*
X0054294Y0014302D01*
X0054778Y0013819D01*
X0054778Y0013335D01*
X0054294Y0012851D01*
X0054778Y0012367D01*
X0054778Y0011884D01*
X0054294Y0011400D01*
X0052843Y0011400D01*
X0052843Y0014302D01*
X0054294Y0014302D01*
X0054778Y0013819D01*
X0051831Y0013819D02*
X0051348Y0014302D01*
X0050380Y0014302D01*
X0049897Y0013819D01*
X0049897Y0013335D01*
X0050380Y0012851D01*
X0051348Y0012851D01*
X0051831Y0012367D01*
X0051831Y0011884D01*
X0051348Y0011400D01*
X0050380Y0011400D01*
X0049897Y0011884D01*
X0050380Y0011400D01*
X0051348Y0011400D01*
X0051831Y0011884D01*
X0051831Y0012367D01*
X0051348Y0012851D01*
X0050380Y0012851D01*
X0049897Y0013335D01*
X0049897Y0013819D01*
X0050380Y0014302D01*
X0051348Y0014302D01*
X0051831Y0013819D01*
X0048885Y0014302D02*
X0048885Y0011884D01*
X0048401Y0011400D01*
X0047434Y0011400D01*
X0046950Y0011884D01*
X0046950Y0014302D01*
X0046950Y0011884D01*
X0047434Y0011400D01*
X0048401Y0011400D01*
X0048885Y0011884D01*
X0048885Y0014302D01*
X0124450Y0154400D02*
X0124450Y0158103D01*
X0126302Y0158103D01*
X0126919Y0157486D01*
X0126919Y0156252D01*
X0126302Y0155634D01*
X0124450Y0155634D01*
X0128133Y0155017D02*
X0128750Y0154400D01*
X0129985Y0154400D01*
X0130602Y0155017D01*
X0130602Y0157486D01*
X0129985Y0158103D01*
X0128750Y0158103D01*
X0128133Y0157486D01*
X0128133Y0155017D01*
X0131816Y0158103D02*
X0134285Y0158103D01*
X0133051Y0158103D02*
X0133051Y0154400D01*
X0135499Y0154400D02*
X0137968Y0156869D01*
X0137968Y0157486D01*
X0137351Y0158103D01*
X0136117Y0158103D01*
X0135499Y0157486D01*
X0135499Y0154400D02*
X0137968Y0154400D01*
X0137968Y0164400D02*
X0135499Y0164400D01*
X0136734Y0164400D02*
X0136734Y0168103D01*
X0135499Y0166869D01*
X0134285Y0168103D02*
X0131816Y0168103D01*
X0133051Y0168103D02*
X0133051Y0164400D01*
X0130602Y0165017D02*
X0130602Y0167486D01*
X0129985Y0168103D01*
X0128750Y0168103D01*
X0128133Y0167486D01*
X0128133Y0165017D01*
X0128750Y0164400D01*
X0129985Y0164400D01*
X0130602Y0165017D01*
X0126919Y0166252D02*
X0126919Y0167486D01*
X0126302Y0168103D01*
X0124450Y0168103D01*
X0124450Y0164400D01*
X0124450Y0165634D02*
X0126302Y0165634D01*
X0126919Y0166252D01*
D13*
X0110305Y0172320D02*
X0109438Y0172320D01*
X0107703Y0170585D01*
X0107703Y0168850D02*
X0107703Y0172320D01*
X0106016Y0171452D02*
X0106016Y0170585D01*
X0102546Y0170585D01*
X0102546Y0171452D02*
X0102546Y0169717D01*
X0103414Y0168850D01*
X0105149Y0168850D01*
X0106016Y0171452D02*
X0105149Y0172320D01*
X0103414Y0172320D01*
X0102546Y0171452D01*
X0100860Y0172320D02*
X0098257Y0172320D01*
X0097390Y0171452D01*
X0098257Y0170585D01*
X0099992Y0170585D01*
X0100860Y0169717D01*
X0099992Y0168850D01*
X0097390Y0168850D01*
X0095703Y0168850D02*
X0093101Y0168850D01*
X0092234Y0169717D01*
X0093101Y0170585D01*
X0095703Y0170585D01*
X0095703Y0171452D02*
X0095703Y0168850D01*
X0095703Y0171452D02*
X0094836Y0172320D01*
X0093101Y0172320D01*
X0090547Y0168850D02*
X0087077Y0168850D01*
X0087077Y0174054D01*
X0085391Y0173187D02*
X0085391Y0172320D01*
X0081921Y0168850D01*
X0085391Y0168850D01*
X0085391Y0173187D02*
X0084523Y0174054D01*
X0082788Y0174054D01*
X0081921Y0173187D01*
X0080226Y0172320D02*
X0079359Y0172320D01*
X0077624Y0170585D01*
X0077624Y0168850D02*
X0077624Y0172320D01*
X0075937Y0171452D02*
X0075937Y0170585D01*
X0072468Y0170585D01*
X0072468Y0171452D02*
X0072468Y0169717D01*
X0073335Y0168850D01*
X0075070Y0168850D01*
X0075937Y0171452D02*
X0075070Y0172320D01*
X0073335Y0172320D01*
X0072468Y0171452D01*
X0070781Y0171452D02*
X0070781Y0169717D01*
X0069913Y0168850D01*
X0067311Y0168850D01*
X0067311Y0167115D02*
X0067311Y0172320D01*
X0069913Y0172320D01*
X0070781Y0171452D01*
X0065624Y0171452D02*
X0065624Y0169717D01*
X0064757Y0168850D01*
X0062155Y0168850D01*
X0062155Y0167115D02*
X0062155Y0172320D01*
X0064757Y0172320D01*
X0065624Y0171452D01*
X0060468Y0171452D02*
X0060468Y0170585D01*
X0056998Y0170585D01*
X0056998Y0171452D02*
X0056998Y0169717D01*
X0057866Y0168850D01*
X0059601Y0168850D01*
X0060468Y0171452D02*
X0059601Y0172320D01*
X0057866Y0172320D01*
X0056998Y0171452D01*
X0055296Y0172320D02*
X0053561Y0172320D01*
X0054428Y0173187D02*
X0054428Y0169717D01*
X0055296Y0168850D01*
X0051874Y0169717D02*
X0051007Y0168850D01*
X0049272Y0168850D01*
X0048404Y0169717D01*
X0049272Y0171452D02*
X0048404Y0172320D01*
X0048404Y0173187D01*
X0049272Y0174054D01*
X0051007Y0174054D01*
X0051874Y0173187D01*
X0051007Y0171452D02*
X0051874Y0170585D01*
X0051874Y0169717D01*
X0051007Y0171452D02*
X0049272Y0171452D01*
X0069453Y0163054D02*
X0069453Y0159585D01*
X0071187Y0157850D01*
X0072922Y0159585D01*
X0072922Y0163054D01*
X0074609Y0161320D02*
X0076344Y0163054D01*
X0076344Y0157850D01*
X0074609Y0157850D02*
X0078079Y0157850D01*
X0079765Y0157850D02*
X0079765Y0158717D01*
X0080633Y0158717D01*
X0080633Y0157850D01*
X0079765Y0157850D01*
X0082344Y0158717D02*
X0083211Y0157850D01*
X0084946Y0157850D01*
X0085813Y0158717D01*
X0085813Y0162187D01*
X0082344Y0158717D01*
X0082344Y0162187D01*
X0083211Y0163054D01*
X0084946Y0163054D01*
X0085813Y0162187D01*
X0045600Y0119117D02*
X0045600Y0117382D01*
X0044733Y0116515D01*
X0042998Y0116515D01*
X0042130Y0117382D01*
X0042130Y0119117D01*
X0042998Y0119984D01*
X0043865Y0119984D01*
X0043865Y0116515D01*
X0042998Y0114828D02*
X0042130Y0113961D01*
X0042130Y0111358D01*
X0040396Y0111358D02*
X0045600Y0111358D01*
X0045600Y0113961D01*
X0044733Y0114828D01*
X0042998Y0114828D01*
X0039100Y0116015D02*
X0035630Y0116015D01*
X0035630Y0118617D01*
X0036498Y0119484D01*
X0039100Y0119484D01*
X0037365Y0114328D02*
X0036498Y0114328D01*
X0035630Y0113461D01*
X0035630Y0111726D01*
X0036498Y0110858D01*
X0038233Y0110858D01*
X0039100Y0111726D01*
X0039100Y0113461D01*
X0037365Y0114328D02*
X0037365Y0110858D01*
X0036498Y0109172D02*
X0039100Y0109172D01*
X0036498Y0109172D02*
X0035630Y0108304D01*
X0035630Y0106569D01*
X0036498Y0105702D01*
X0035630Y0104015D02*
X0038233Y0104015D01*
X0039100Y0103148D01*
X0038233Y0102280D01*
X0039100Y0101413D01*
X0038233Y0100546D01*
X0035630Y0100546D01*
X0033896Y0105702D02*
X0039100Y0105702D01*
X0040396Y0104515D02*
X0045600Y0104515D01*
X0045600Y0101913D01*
X0044733Y0101046D01*
X0042998Y0101046D01*
X0042130Y0101913D01*
X0042130Y0104515D01*
X0045600Y0099343D02*
X0045600Y0097608D01*
X0045600Y0098475D02*
X0040396Y0098475D01*
X0040396Y0097608D01*
X0042130Y0095921D02*
X0045600Y0095921D01*
X0045600Y0093319D01*
X0044733Y0092452D01*
X0042130Y0092452D01*
X0042998Y0090765D02*
X0042130Y0089897D01*
X0042130Y0088163D01*
X0042998Y0087295D01*
X0044733Y0087295D01*
X0045600Y0088163D01*
X0045600Y0089897D01*
X0044733Y0090765D01*
X0042998Y0090765D01*
X0039100Y0091092D02*
X0035630Y0091092D01*
X0035630Y0092827D02*
X0035630Y0093694D01*
X0035630Y0092827D02*
X0037365Y0091092D01*
X0037365Y0089405D02*
X0036498Y0089405D01*
X0035630Y0088538D01*
X0035630Y0086803D01*
X0036498Y0085936D01*
X0038233Y0085936D01*
X0039100Y0086803D01*
X0039100Y0088538D01*
X0037365Y0089405D02*
X0037365Y0085936D01*
X0038233Y0084249D02*
X0037365Y0083382D01*
X0037365Y0081647D01*
X0036498Y0080779D01*
X0035630Y0081647D01*
X0035630Y0084249D01*
X0038233Y0084249D02*
X0039100Y0083382D01*
X0039100Y0080779D01*
X0039100Y0079093D02*
X0039100Y0076490D01*
X0038233Y0075623D01*
X0037365Y0076490D01*
X0037365Y0079093D01*
X0036498Y0079093D02*
X0039100Y0079093D01*
X0036498Y0079093D02*
X0035630Y0078225D01*
X0035630Y0076490D01*
X0033896Y0073053D02*
X0039100Y0073053D01*
X0039100Y0073920D02*
X0039100Y0072185D01*
X0042130Y0072693D02*
X0042130Y0074428D01*
X0042998Y0075296D01*
X0043865Y0075296D01*
X0043865Y0071826D01*
X0042998Y0071826D02*
X0042130Y0072693D01*
X0042998Y0071826D02*
X0044733Y0071826D01*
X0045600Y0072693D01*
X0045600Y0074428D01*
X0045600Y0070123D02*
X0045600Y0068388D01*
X0045600Y0069256D02*
X0040396Y0069256D01*
X0040396Y0068388D01*
X0042130Y0066702D02*
X0045600Y0063232D01*
X0045600Y0066702D01*
X0048263Y0067630D02*
X0051733Y0067630D01*
X0052600Y0068498D01*
X0052600Y0070200D02*
X0049130Y0070200D01*
X0049130Y0068498D02*
X0049130Y0066763D01*
X0049130Y0065076D02*
X0052600Y0061606D01*
X0052600Y0059920D02*
X0052600Y0056450D01*
X0047396Y0056450D01*
X0047396Y0059920D01*
X0049130Y0061606D02*
X0052600Y0065076D01*
X0050865Y0070200D02*
X0049130Y0071935D01*
X0049130Y0072803D01*
X0049130Y0074497D02*
X0051733Y0074497D01*
X0052600Y0075365D01*
X0052600Y0077967D01*
X0049130Y0077967D01*
X0049998Y0079654D02*
X0049130Y0080521D01*
X0049130Y0083123D01*
X0049130Y0084810D02*
X0049130Y0085678D01*
X0052600Y0085678D01*
X0052600Y0086545D02*
X0052600Y0084810D01*
X0052600Y0083123D02*
X0052600Y0080521D01*
X0051733Y0079654D01*
X0049998Y0079654D01*
X0047396Y0083123D02*
X0052600Y0083123D01*
X0052600Y0088248D02*
X0049130Y0088248D01*
X0049130Y0090850D01*
X0049998Y0091717D01*
X0052600Y0091717D01*
X0051733Y0093404D02*
X0052600Y0094272D01*
X0052600Y0096874D01*
X0053467Y0096874D02*
X0049130Y0096874D01*
X0049130Y0094272D01*
X0049998Y0093404D01*
X0051733Y0093404D01*
X0054335Y0095139D02*
X0054335Y0096006D01*
X0053467Y0096874D01*
X0047396Y0085678D02*
X0046528Y0085678D01*
X0045600Y0084741D02*
X0044733Y0083874D01*
X0045600Y0083006D01*
X0044733Y0082139D01*
X0042130Y0082139D01*
X0042130Y0085608D02*
X0044733Y0085608D01*
X0045600Y0084741D01*
X0033896Y0073053D02*
X0033896Y0072185D01*
X0035630Y0065342D02*
X0035630Y0062740D01*
X0036498Y0061873D01*
X0037365Y0062740D01*
X0037365Y0064475D01*
X0038233Y0065342D01*
X0039100Y0064475D01*
X0039100Y0061873D01*
X0042130Y0061545D02*
X0042130Y0058076D01*
X0042998Y0056389D02*
X0042130Y0055521D01*
X0042130Y0053787D01*
X0042998Y0052919D01*
X0044733Y0052919D01*
X0045600Y0053787D01*
X0045600Y0055521D01*
X0044733Y0056389D01*
X0042998Y0056389D01*
X0045600Y0058076D02*
X0045600Y0061545D01*
X0045600Y0058076D02*
X0042130Y0061545D01*
X0042130Y0063232D02*
X0042130Y0066702D01*
X0035630Y0060178D02*
X0035630Y0059310D01*
X0037365Y0057576D01*
X0037365Y0055889D02*
X0036498Y0055889D01*
X0035630Y0055021D01*
X0035630Y0053287D01*
X0036498Y0052419D01*
X0038233Y0052419D01*
X0039100Y0053287D01*
X0039100Y0055021D01*
X0037365Y0055889D02*
X0037365Y0052419D01*
X0038233Y0050732D02*
X0035630Y0050732D01*
X0035630Y0047263D02*
X0038233Y0047263D01*
X0039100Y0048130D01*
X0038233Y0048998D01*
X0039100Y0049865D01*
X0038233Y0050732D01*
X0038233Y0045576D02*
X0036498Y0045576D01*
X0035630Y0044709D01*
X0035630Y0042974D01*
X0036498Y0042106D01*
X0038233Y0042106D01*
X0039100Y0042974D01*
X0039100Y0044709D01*
X0038233Y0045576D01*
X0042130Y0047763D02*
X0042130Y0050365D01*
X0042998Y0051232D01*
X0045600Y0051232D01*
X0045600Y0047763D02*
X0042130Y0047763D01*
X0042998Y0040920D02*
X0045600Y0040920D01*
X0045600Y0038317D01*
X0044733Y0037450D01*
X0043865Y0038317D01*
X0043865Y0040920D01*
X0042998Y0040920D02*
X0042130Y0040052D01*
X0042130Y0038317D01*
X0039100Y0036950D02*
X0033896Y0036950D01*
X0033896Y0039552D01*
X0034763Y0040420D01*
X0036498Y0040420D01*
X0037365Y0039552D01*
X0037365Y0036950D01*
X0039100Y0057576D02*
X0035630Y0057576D01*
X0049998Y0058185D02*
X0049998Y0056450D01*
X0018335Y0060670D02*
X0013130Y0060670D01*
X0013130Y0063272D01*
X0013998Y0064139D01*
X0015733Y0064139D01*
X0016600Y0063272D01*
X0016600Y0060670D01*
X0015733Y0058983D02*
X0013998Y0058983D01*
X0013130Y0058115D01*
X0013130Y0056381D01*
X0013998Y0055513D01*
X0015733Y0055513D01*
X0016600Y0056381D01*
X0016600Y0058115D01*
X0015733Y0058983D01*
X0016600Y0053810D02*
X0016600Y0052076D01*
X0016600Y0052943D02*
X0011396Y0052943D01*
X0011396Y0052076D01*
X0013130Y0049521D02*
X0013130Y0047787D01*
X0013998Y0046919D01*
X0015733Y0046919D01*
X0016600Y0047787D01*
X0016600Y0049521D01*
X0014865Y0050389D02*
X0014865Y0046919D01*
X0013130Y0045232D02*
X0016600Y0043498D01*
X0013130Y0041763D01*
X0013998Y0040076D02*
X0014865Y0040076D01*
X0014865Y0036606D01*
X0013998Y0036606D02*
X0015733Y0036606D01*
X0016600Y0037474D01*
X0016600Y0039209D01*
X0013998Y0040076D02*
X0013130Y0039209D01*
X0013130Y0037474D01*
X0013998Y0036606D01*
X0015733Y0034920D02*
X0012263Y0034920D01*
X0011396Y0034052D01*
X0011396Y0031450D01*
X0016600Y0031450D01*
X0016600Y0034052D01*
X0015733Y0034920D01*
X0013130Y0049521D02*
X0013998Y0050389D01*
X0014865Y0050389D01*
X0014865Y0065826D02*
X0014865Y0069296D01*
X0013998Y0069296D01*
X0013130Y0068428D01*
X0013130Y0066693D01*
X0013998Y0065826D01*
X0015733Y0065826D01*
X0016600Y0066693D01*
X0016600Y0068428D01*
X0015733Y0070982D02*
X0013998Y0070982D01*
X0013130Y0071850D01*
X0013130Y0074452D01*
X0011396Y0074452D02*
X0016600Y0074452D01*
X0016600Y0071850D01*
X0015733Y0070982D01*
X0016600Y0081295D02*
X0011396Y0081295D01*
X0013130Y0081295D02*
X0013130Y0083897D01*
X0013998Y0084765D01*
X0015733Y0084765D01*
X0016600Y0083897D01*
X0016600Y0081295D01*
X0015733Y0086452D02*
X0013130Y0086452D01*
X0015733Y0086452D02*
X0016600Y0087319D01*
X0016600Y0089921D01*
X0017467Y0089921D02*
X0018335Y0089054D01*
X0018335Y0088186D01*
X0017467Y0089921D02*
X0013130Y0089921D01*
X0013130Y0096764D02*
X0012263Y0096764D01*
X0011396Y0097632D01*
X0011396Y0099367D01*
X0012263Y0100234D01*
X0013998Y0099367D02*
X0014865Y0100234D01*
X0015733Y0100234D01*
X0016600Y0099367D01*
X0016600Y0097632D01*
X0015733Y0096764D01*
X0013998Y0097632D02*
X0013998Y0099367D01*
X0013998Y0097632D02*
X0013130Y0096764D01*
X0015733Y0101921D02*
X0015733Y0102788D01*
X0016600Y0102788D01*
X0016600Y0101921D01*
X0015733Y0101921D01*
X0015733Y0104499D02*
X0016600Y0104499D01*
X0016600Y0107969D01*
X0016600Y0109655D02*
X0015733Y0109655D01*
X0015733Y0110523D01*
X0016600Y0110523D01*
X0016600Y0109655D01*
X0012263Y0107969D02*
X0015733Y0104499D01*
X0012263Y0107969D02*
X0011396Y0107969D01*
X0011396Y0104499D01*
D14*
X0056800Y0126250D02*
X0056800Y0021250D01*
D15*
X0128800Y0056250D02*
X0135300Y0056250D01*
X0135300Y0086250D01*
X0128800Y0086250D01*
D16*
X0128644Y0096250D02*
X0124425Y0096250D01*
X0120488Y0096250D02*
X0116269Y0096250D01*
X0112331Y0096250D02*
X0108112Y0096250D01*
X0104175Y0096250D02*
X0099956Y0096250D01*
X0096019Y0096250D02*
X0091800Y0096250D01*
X0132581Y0096250D02*
X0136800Y0096250D01*
D17*
X0017708Y0113744D02*
X0016921Y0114886D01*
X0016921Y0114926D01*
X0016960Y0114965D01*
X0016960Y0115004D01*
X0016999Y0115044D01*
X0016999Y0115083D01*
X0017039Y0115122D01*
X0017039Y0115162D01*
X0017078Y0115201D01*
X0017078Y0115241D01*
X0017117Y0115280D01*
X0017117Y0115319D01*
X0017157Y0115359D01*
X0017157Y0115437D01*
X0017196Y0115477D01*
X0015070Y0116264D01*
X0015031Y0116146D01*
X0014952Y0115989D01*
X0014873Y0115910D01*
X0014834Y0115831D01*
X0014755Y0115752D01*
X0014677Y0115713D01*
X0014598Y0115634D01*
X0014440Y0115556D01*
X0014322Y0115516D01*
X0014165Y0115437D01*
X0014047Y0115437D01*
X0013928Y0115398D01*
X0013692Y0115398D01*
X0013220Y0115556D01*
X0012984Y0115713D01*
X0012905Y0115792D01*
X0012826Y0115910D01*
X0012747Y0115989D01*
X0012669Y0116107D01*
X0012629Y0116225D01*
X0012551Y0116343D01*
X0012551Y0116461D01*
X0012511Y0116619D01*
X0012511Y0116894D01*
X0012551Y0117012D01*
X0012551Y0117130D01*
X0012629Y0117248D01*
X0012669Y0117367D01*
X0012826Y0117603D01*
X0012984Y0117760D01*
X0013220Y0117918D01*
X0013338Y0117957D01*
X0013456Y0118036D01*
X0013574Y0118036D01*
X0013692Y0118075D01*
X0014047Y0118075D01*
X0014165Y0118036D01*
X0014243Y0118036D01*
X0014322Y0117996D01*
X0014440Y0117957D01*
X0014519Y0117918D01*
X0014598Y0117839D01*
X0014677Y0117800D01*
X0014834Y0117642D01*
X0014873Y0117563D01*
X0014952Y0117485D01*
X0015070Y0117248D01*
X0017196Y0118036D01*
X0017157Y0118036D01*
X0017157Y0118115D01*
X0017117Y0118154D01*
X0017117Y0118193D01*
X0017078Y0118233D01*
X0017078Y0118272D01*
X0017039Y0118311D01*
X0017039Y0118390D01*
X0016999Y0118430D01*
X0016999Y0118469D01*
X0016921Y0118548D01*
X0016921Y0118587D01*
X0017708Y0119729D01*
X0016802Y0120634D01*
X0015700Y0119807D01*
X0015621Y0119847D01*
X0015582Y0119886D01*
X0015503Y0119926D01*
X0015464Y0119926D01*
X0015385Y0119965D01*
X0015346Y0120004D01*
X0015267Y0120044D01*
X0015228Y0120044D01*
X0015070Y0120122D01*
X0015031Y0120122D01*
X0014952Y0120162D01*
X0014913Y0120162D01*
X0014834Y0120201D01*
X0014755Y0120201D01*
X0014716Y0120241D01*
X0014480Y0121619D01*
X0013220Y0121619D01*
X0012984Y0120201D01*
X0012826Y0120201D01*
X0012787Y0120162D01*
X0012708Y0120162D01*
X0012669Y0120122D01*
X0012590Y0120083D01*
X0012511Y0120083D01*
X0012472Y0120044D01*
X0012393Y0120044D01*
X0012354Y0120004D01*
X0012275Y0119965D01*
X0012236Y0119926D01*
X0012157Y0119926D01*
X0012117Y0119886D01*
X0012039Y0119847D01*
X0011999Y0119807D01*
X0010858Y0120634D01*
X0009991Y0119729D01*
X0010779Y0118587D01*
X0010739Y0118548D01*
X0010700Y0118469D01*
X0010700Y0118430D01*
X0010661Y0118351D01*
X0010621Y0118311D01*
X0010582Y0118233D01*
X0010582Y0118193D01*
X0010543Y0118115D01*
X0010503Y0118075D01*
X0010503Y0117996D01*
X0010464Y0117918D01*
X0010464Y0117878D01*
X0010425Y0117800D01*
X0010425Y0117760D01*
X0010385Y0117681D01*
X0010385Y0117603D01*
X0009007Y0117367D01*
X0009007Y0116107D01*
X0010385Y0115870D01*
X0010385Y0115831D01*
X0010425Y0115752D01*
X0010425Y0115674D01*
X0010464Y0115634D01*
X0010464Y0115556D01*
X0010503Y0115477D01*
X0010503Y0115437D01*
X0010543Y0115359D01*
X0010582Y0115319D01*
X0010582Y0115241D01*
X0010621Y0115201D01*
X0010661Y0115122D01*
X0010700Y0115083D01*
X0010700Y0115004D01*
X0010739Y0114965D01*
X0010779Y0114886D01*
X0009991Y0113744D01*
X0010858Y0112878D01*
X0011999Y0113666D01*
X0012039Y0113626D01*
X0012117Y0113626D01*
X0012157Y0113587D01*
X0012236Y0113548D01*
X0012275Y0113508D01*
X0012354Y0113508D01*
X0012393Y0113469D01*
X0012472Y0113430D01*
X0012511Y0113430D01*
X0012669Y0113351D01*
X0012708Y0113351D01*
X0012787Y0113311D01*
X0012826Y0113311D01*
X0012905Y0113272D01*
X0012984Y0113272D01*
X0013220Y0111894D01*
X0014480Y0111894D01*
X0014716Y0113272D01*
X0014755Y0113272D01*
X0014834Y0113311D01*
X0014913Y0113311D01*
X0014952Y0113351D01*
X0015031Y0113351D01*
X0015070Y0113390D01*
X0015149Y0113430D01*
X0015228Y0113430D01*
X0015267Y0113469D01*
X0015346Y0113469D01*
X0015385Y0113508D01*
X0015464Y0113548D01*
X0015503Y0113587D01*
X0015582Y0113626D01*
X0015621Y0113626D01*
X0015700Y0113666D01*
X0016802Y0112878D01*
X0017708Y0113744D01*
X0017691Y0113728D02*
X0010008Y0113728D01*
X0010186Y0114026D02*
X0017514Y0114026D01*
X0017308Y0114324D02*
X0010391Y0114324D01*
X0010596Y0114622D02*
X0017103Y0114622D01*
X0016921Y0114919D02*
X0010762Y0114919D01*
X0010606Y0115217D02*
X0017078Y0115217D01*
X0017094Y0115515D02*
X0014319Y0115515D01*
X0014815Y0115812D02*
X0016290Y0115812D01*
X0015486Y0116110D02*
X0015013Y0116110D01*
X0015044Y0117301D02*
X0015212Y0117301D01*
X0014856Y0117599D02*
X0016016Y0117599D01*
X0016820Y0117896D02*
X0014540Y0117896D01*
X0013188Y0117896D02*
X0010464Y0117896D01*
X0010362Y0117599D02*
X0012823Y0117599D01*
X0012647Y0117301D02*
X0009007Y0117301D01*
X0009007Y0117003D02*
X0012548Y0117003D01*
X0012511Y0116706D02*
X0009007Y0116706D01*
X0009007Y0116408D02*
X0012551Y0116408D01*
X0012667Y0116110D02*
X0009007Y0116110D01*
X0010395Y0115812D02*
X0012891Y0115812D01*
X0013342Y0115515D02*
X0010484Y0115515D01*
X0010305Y0113431D02*
X0011658Y0113431D01*
X0011227Y0113133D02*
X0010603Y0113133D01*
X0012470Y0113431D02*
X0015229Y0113431D01*
X0014692Y0113133D02*
X0013007Y0113133D01*
X0013058Y0112835D02*
X0014641Y0112835D01*
X0014590Y0112537D02*
X0013110Y0112537D01*
X0013161Y0112240D02*
X0014539Y0112240D01*
X0014488Y0111942D02*
X0013212Y0111942D01*
X0016029Y0113431D02*
X0017380Y0113431D01*
X0017069Y0113133D02*
X0016446Y0113133D01*
X0017117Y0118194D02*
X0010582Y0118194D01*
X0010712Y0118492D02*
X0016976Y0118492D01*
X0017060Y0118790D02*
X0010639Y0118790D01*
X0010434Y0119087D02*
X0017266Y0119087D01*
X0017471Y0119385D02*
X0010228Y0119385D01*
X0010023Y0119683D02*
X0017676Y0119683D01*
X0017456Y0119981D02*
X0015931Y0119981D01*
X0016328Y0120278D02*
X0017158Y0120278D01*
X0016861Y0120576D02*
X0016725Y0120576D01*
X0015370Y0119981D02*
X0012306Y0119981D01*
X0011760Y0119981D02*
X0010232Y0119981D01*
X0010517Y0120278D02*
X0011349Y0120278D01*
X0010938Y0120576D02*
X0010802Y0120576D01*
X0012996Y0120278D02*
X0014709Y0120278D01*
X0014658Y0120576D02*
X0013046Y0120576D01*
X0013096Y0120874D02*
X0014607Y0120874D01*
X0014556Y0121171D02*
X0013145Y0121171D01*
X0013195Y0121469D02*
X0014505Y0121469D01*
D18*
X0003050Y0147500D02*
X0040550Y0147500D01*
X0040550Y0185000D01*
X0003050Y0185000D01*
X0003050Y0147500D01*
X0008800Y0166250D02*
X0008804Y0166569D01*
X0008816Y0166888D01*
X0008835Y0167206D01*
X0008863Y0167524D01*
X0008898Y0167841D01*
X0008941Y0168157D01*
X0008991Y0168473D01*
X0009050Y0168786D01*
X0009116Y0169098D01*
X0009190Y0169409D01*
X0009271Y0169717D01*
X0009360Y0170024D01*
X0009456Y0170328D01*
X0009560Y0170630D01*
X0009671Y0170929D01*
X0009790Y0171225D01*
X0009915Y0171518D01*
X0010048Y0171808D01*
X0010188Y0172095D01*
X0010335Y0172378D01*
X0010489Y0172658D01*
X0010650Y0172933D01*
X0010817Y0173205D01*
X0010991Y0173472D01*
X0011171Y0173736D01*
X0011358Y0173994D01*
X0011551Y0174248D01*
X0011751Y0174497D01*
X0011956Y0174741D01*
X0012168Y0174980D01*
X0012385Y0175214D01*
X0012608Y0175442D01*
X0012836Y0175665D01*
X0013070Y0175882D01*
X0013309Y0176094D01*
X0013553Y0176299D01*
X0013802Y0176499D01*
X0014056Y0176692D01*
X0014314Y0176879D01*
X0014578Y0177059D01*
X0014845Y0177233D01*
X0015117Y0177400D01*
X0015392Y0177561D01*
X0015672Y0177715D01*
X0015955Y0177862D01*
X0016242Y0178002D01*
X0016532Y0178135D01*
X0016825Y0178260D01*
X0017121Y0178379D01*
X0017420Y0178490D01*
X0017722Y0178594D01*
X0018026Y0178690D01*
X0018333Y0178779D01*
X0018641Y0178860D01*
X0018952Y0178934D01*
X0019264Y0179000D01*
X0019577Y0179059D01*
X0019893Y0179109D01*
X0020209Y0179152D01*
X0020526Y0179187D01*
X0020844Y0179215D01*
X0021162Y0179234D01*
X0021481Y0179246D01*
X0021800Y0179250D01*
X0022119Y0179246D01*
X0022438Y0179234D01*
X0022756Y0179215D01*
X0023074Y0179187D01*
X0023391Y0179152D01*
X0023707Y0179109D01*
X0024023Y0179059D01*
X0024336Y0179000D01*
X0024648Y0178934D01*
X0024959Y0178860D01*
X0025267Y0178779D01*
X0025574Y0178690D01*
X0025878Y0178594D01*
X0026180Y0178490D01*
X0026479Y0178379D01*
X0026775Y0178260D01*
X0027068Y0178135D01*
X0027358Y0178002D01*
X0027645Y0177862D01*
X0027928Y0177715D01*
X0028208Y0177561D01*
X0028483Y0177400D01*
X0028755Y0177233D01*
X0029022Y0177059D01*
X0029286Y0176879D01*
X0029544Y0176692D01*
X0029798Y0176499D01*
X0030047Y0176299D01*
X0030291Y0176094D01*
X0030530Y0175882D01*
X0030764Y0175665D01*
X0030992Y0175442D01*
X0031215Y0175214D01*
X0031432Y0174980D01*
X0031644Y0174741D01*
X0031849Y0174497D01*
X0032049Y0174248D01*
X0032242Y0173994D01*
X0032429Y0173736D01*
X0032609Y0173472D01*
X0032783Y0173205D01*
X0032950Y0172933D01*
X0033111Y0172658D01*
X0033265Y0172378D01*
X0033412Y0172095D01*
X0033552Y0171808D01*
X0033685Y0171518D01*
X0033810Y0171225D01*
X0033929Y0170929D01*
X0034040Y0170630D01*
X0034144Y0170328D01*
X0034240Y0170024D01*
X0034329Y0169717D01*
X0034410Y0169409D01*
X0034484Y0169098D01*
X0034550Y0168786D01*
X0034609Y0168473D01*
X0034659Y0168157D01*
X0034702Y0167841D01*
X0034737Y0167524D01*
X0034765Y0167206D01*
X0034784Y0166888D01*
X0034796Y0166569D01*
X0034800Y0166250D01*
X0034796Y0165931D01*
X0034784Y0165612D01*
X0034765Y0165294D01*
X0034737Y0164976D01*
X0034702Y0164659D01*
X0034659Y0164343D01*
X0034609Y0164027D01*
X0034550Y0163714D01*
X0034484Y0163402D01*
X0034410Y0163091D01*
X0034329Y0162783D01*
X0034240Y0162476D01*
X0034144Y0162172D01*
X0034040Y0161870D01*
X0033929Y0161571D01*
X0033810Y0161275D01*
X0033685Y0160982D01*
X0033552Y0160692D01*
X0033412Y0160405D01*
X0033265Y0160122D01*
X0033111Y0159842D01*
X0032950Y0159567D01*
X0032783Y0159295D01*
X0032609Y0159028D01*
X0032429Y0158764D01*
X0032242Y0158506D01*
X0032049Y0158252D01*
X0031849Y0158003D01*
X0031644Y0157759D01*
X0031432Y0157520D01*
X0031215Y0157286D01*
X0030992Y0157058D01*
X0030764Y0156835D01*
X0030530Y0156618D01*
X0030291Y0156406D01*
X0030047Y0156201D01*
X0029798Y0156001D01*
X0029544Y0155808D01*
X0029286Y0155621D01*
X0029022Y0155441D01*
X0028755Y0155267D01*
X0028483Y0155100D01*
X0028208Y0154939D01*
X0027928Y0154785D01*
X0027645Y0154638D01*
X0027358Y0154498D01*
X0027068Y0154365D01*
X0026775Y0154240D01*
X0026479Y0154121D01*
X0026180Y0154010D01*
X0025878Y0153906D01*
X0025574Y0153810D01*
X0025267Y0153721D01*
X0024959Y0153640D01*
X0024648Y0153566D01*
X0024336Y0153500D01*
X0024023Y0153441D01*
X0023707Y0153391D01*
X0023391Y0153348D01*
X0023074Y0153313D01*
X0022756Y0153285D01*
X0022438Y0153266D01*
X0022119Y0153254D01*
X0021800Y0153250D01*
X0021481Y0153254D01*
X0021162Y0153266D01*
X0020844Y0153285D01*
X0020526Y0153313D01*
X0020209Y0153348D01*
X0019893Y0153391D01*
X0019577Y0153441D01*
X0019264Y0153500D01*
X0018952Y0153566D01*
X0018641Y0153640D01*
X0018333Y0153721D01*
X0018026Y0153810D01*
X0017722Y0153906D01*
X0017420Y0154010D01*
X0017121Y0154121D01*
X0016825Y0154240D01*
X0016532Y0154365D01*
X0016242Y0154498D01*
X0015955Y0154638D01*
X0015672Y0154785D01*
X0015392Y0154939D01*
X0015117Y0155100D01*
X0014845Y0155267D01*
X0014578Y0155441D01*
X0014314Y0155621D01*
X0014056Y0155808D01*
X0013802Y0156001D01*
X0013553Y0156201D01*
X0013309Y0156406D01*
X0013070Y0156618D01*
X0012836Y0156835D01*
X0012608Y0157058D01*
X0012385Y0157286D01*
X0012168Y0157520D01*
X0011956Y0157759D01*
X0011751Y0158003D01*
X0011551Y0158252D01*
X0011358Y0158506D01*
X0011171Y0158764D01*
X0010991Y0159028D01*
X0010817Y0159295D01*
X0010650Y0159567D01*
X0010489Y0159842D01*
X0010335Y0160122D01*
X0010188Y0160405D01*
X0010048Y0160692D01*
X0009915Y0160982D01*
X0009790Y0161275D01*
X0009671Y0161571D01*
X0009560Y0161870D01*
X0009456Y0162172D01*
X0009360Y0162476D01*
X0009271Y0162783D01*
X0009190Y0163091D01*
X0009116Y0163402D01*
X0009050Y0163714D01*
X0008991Y0164027D01*
X0008941Y0164343D01*
X0008898Y0164659D01*
X0008863Y0164976D01*
X0008835Y0165294D01*
X0008816Y0165612D01*
X0008804Y0165931D01*
X0008800Y0166250D01*
M02*
